<?xml version="1.0" encoding="UTF-8"?>
<svg id="_レイヤー_2" data-name="レイヤー 2" xmlns="http://www.w3.org/2000/svg" viewBox="0 0 1604 220.32">
  <defs>
    <style>
      .cls-1 {
        fill: #fbfdea;
      }
    </style>
  </defs>
  <g id="_背景_画像" data-name="背景 画像">
    <path class="cls-1" d="m0,195.71c47.42-5.98,114.24-18.86,221.5-29.01,44.29-4.19,136-9.7,215-9.7s178.19,3.19,306,22.18c146.69,21.8,253.04,35.86,387.5,39.97,128.5,3.93,248-2.31,333-14.32,85-12.01,141-23.98,141-23.98V23.85s-56,11.96-141,23.98c-85,12.01-204.5,18.25-333,14.32-134.46-4.11-240.81-18.17-387.5-39.97C614.69,3.19,517.5,0,436.5,0s-170.71,5.51-215,9.7C114.24,19.85,47.42,32.73,0,38.71v157Z"/>
  </g>
</svg>