<?xml version="1.0" encoding="UTF-8"?>
<svg xmlns="http://www.w3.org/2000/svg" viewBox="0 0 116.13 117.39">
  <defs>
    <style>
      .cls-1 {
        mix-blend-mode: multiply;
      }

      .cls-1, .cls-2 {
        fill: none;
      }

      .cls-2 {
        isolation: isolate;
      }

      .cls-3 {
        fill: #f4e9d2;
      }
    </style>
  </defs>
  <g class="cls-2">
    <g id="_レイヤー_2" data-name="レイヤー 2">
      <g id="_イラスト" data-name="イラスト">
        <g>
          <g>
            <g class="cls-1">
              <path class="cls-3" d="m115.75,26.43c-.21-.99-.72-1.91-.65-2.77-.58-2.36-1.73-4.15-2.49-6.34-.24-.22-.44-.38-.57-.5-.09-.59.01-1.1-.24-1.61-.23-.14-.49-.3-.74-.45-1.65-4.54-5.72-7.36-9.57-9.82-.8-.38-1.6-.68-2.41-.93-.12-.22-.22-.39-.35-.61-1.73-.85-3.66-1.3-5.35-2.22-4.57-.73-9.24-1.32-13.97-.94-.82.4-1.57.95-2.34,1.42-1.14,1.09-2.53,2.27-3.88,3.04-.69,1.22-1.67,2.1-2.67,2.9-.91,1.7-2.35,2.97-2.92,4.85-.35.29-.66.54-.98.81-.24.8-.81,1.16-.72,2.15-.22.19-.45.38-.62.53-.81,2.37-2.72,4.01-2.4,6.62-.14.25-.27.47-.41.71.05.39.11.8.14,1.11-.1.33-.18.57-.24.75.09.32.16.56.23.78-.09.32-.17.62-.25.9.51,2.9.32,5.99.74,8.91.11.34.21.64.3.92-.04.27-.09.52-.12.72.17,1.76,1.13,3.03,1.32,4.79.23.35.54.85.92,1.07.36-.04.65-.08.91-.11.29.35.39.8.83.93,2.5,2.03,5.1,4.09,8.01,5.5,3.8,3.21,8.7,5,13.64,5.49.25-.09.44-.14.62-.2.19.11.37.21.5.28,1.19,0,2.23-.6,3.34-.3.63-.63,1.21-1.23,2.29-1.22.32-.25.61-.47.9-.68,1.5-.25,3.05-1.31,4.01-2.39.47-.24.83-.43,1.12-.57,1.45-2.06,4.33-2.66,5.25-5.2.41-.37.79-.71,1.13-1.03.49-1.4,1.4-2.43,2.47-3.37.42-.9.85-1.81,1.28-2.73.83-.42,1.02-1.23.99-2.21,1.44-2.31,2.58-4.91,3.34-7.49-.14-.51-.09-1.04-.38-1.49Zm-15,18.16c-.61,1.26-1.82,1.87-2.86,2.79-2.22.62-5.61-.19-5.5-3.02-1.42-2.62-.25-5.29-.8-8.01.35-.49.96-.73,1.43-1.1h1.24c2.13,1.4,4,2.97,5.53,5,.22.11.44.22.72.36.18.43.65,1.04,1.02,1.27.32.81.08,1.43-.19,2.06-.19.21-.46.4-.59.66Zm-10.81-14.78c-.34.33-.71.46-1.11.5-.76-.33-1.63-.82-2.34-1.24-.56-.71-.91-1.42-1.05-2.29.73-.53,1.63-.92,2.4-1.39,1.46-.06,1.7.09,2.28,1.33.01.2-.1.39-.16.58.51.77.44,1.75-.02,2.52Zm-2.59,18.21c-.3.45-.77.81-1.25,1-1.66.15-3.39.16-4.99-.76-.32-.04-.68-.07-1-.11-1.12-.83-2.64-1.11-3.18-2.53-.03-.07-.17-.09-.29-.15,0-1.78-.61-4.42,1.22-5.81h.66c.6-.53,1.28-1.11,1.94-1.64.17-.04.37-.09.64-.14.92-1.02,1.84-1.12,2.75-2.17.19-.03.44-.06.7-.1.19-.12.4-.26.62-.4,1.12-.05,1.49,1.13,2.29,1.68.24,1.35.82,2.34,1.1,3.8-.15.89-.06,1.94.28,2.99-.37,1.22-.27,2.54-.89,3.81-.15.14-.39.32-.6.54Zm-19.07-25.14c.19-.61.38-1.24.57-1.9.36-.21.7-.42,1.02-.59.4-.04.76-.07,1.08-.1,2.37.82,4.32,2.74,6.77,3.3.42.37.4.87.61,1.22-.16,2.09-1.32,2.33-2.87,2.82-.35-.04-.65-.08-1-.12-1.53.68-3.48.3-5.1.37-1.51-.27-1.19-1.8-1.46-3.01.14-.28.31-.59.5-.97-.02-.24-.06-.54-.11-1.02Zm5.73-9.73c.16-.34.39-.85.59-1.28,1.24-1.11,2.68-1.86,3.54-3.21,1.33-.41,2.58-.81,3.99-.02.43.57.92,1.21,1.46,1.91v1.02c.12.24.26.52.39.77-.63,1.85.29,3.45-.33,5.38.04.27.08.52.11.77-.27.44-.52.88-.8,1.35-.86.28-1.86.23-2.73.37-1.05-.39-2-.75-3.01-1.13-.09-.1-.23-.26-.39-.43-.21-.06-.45-.14-.72-.22-.55-.7-.97-1.53-1.75-2.14.04-.24.06-.49.11-.81-.27-.64-.59-1.35-.46-2.32Zm-5.2,20.29c.11-.21.27-.47.41-.73,2.64-1.28,5.52-2.13,8.36-2.62,1.54.04,2.73.77,3.99,1.58q.09,1.07-.27,2.42c-.39.32-.82.68-1.25,1.04-.1.23-.2.46-.32.72-1.92,1.57-4.33,2.26-6.36,3.69-2.35.96-4.5-4.09-4.55-6.09Zm20.18-15.15c-.7-.61-.78-1.63-1.18-2.47.14-1.06.13-2.22-.53-3.21.05-.2.09-.4.17-.7-.3-1.78-.17-3.43.76-5.1.48-.25.97-.51,1.35-.71,2.62-.4,5.18.19,7.35,1.71.21.33.7.91,1.05,1.18-.03.1-.06.19-.11.35.06.24.14.52.22.83-.17.83-.81,1.54-.77,2.42-.16.24-.29.45-.49.76-.12,1.26-1,2.32-1.41,3.62-1.66,1.47-4.28,2.01-6.41,1.32Zm11.73-1.4c.7-.66,1.65-1.13,2.68-1.56.69.22,1.37.37,2,.78.23.37.47.76.7,1.14.19.11.36.22.54.32.41.73.55,1.65,1.13,2.25.05.37.09.67.13,1,.11.15.22.32.37.52,0,2.28,1,3.44-1.7,4.64-.24-.14-.46-.25-.72-.4-.2.08-.43.16-.69.27-1.91-.32-4.22.23-6.31-.3-1.33.4-2.59.16-3.82-.66-.1-.27-.22-.61-.34-.95-.22-.2-.44-.4-.67-.61v-.46c.85-.76,1.67-1.51,2.55-2.31.13-.25.3-.56.45-.85.27-.12.5-.23.84-.37.59-.63,1.25-1.34,1.98-2.11.2-.07.48-.18.89-.34Zm.72,19.59c-.6-.33-.94-.55-1.47-1.09-.09-.04-.32-.13-.54-.22-.86-.96-1.67-1.96-2.72-2.58-.49-.89-1.44-2.07-.44-2.85,1.13-.41,2.53-.53,3.73-.12.29-.07.64-.16.97-.24,1.92.42,3.99.26,5.81,1.04.61.44.82,1.1,1.28,1.62.03.54.06,1.1.09,1.62-.87,1.26-1.39,2.95-3.01,3.24-.5.34-.97.65-1.39.93-1.06-.05-1.85-.42-2.29-1.35Z"/>
            </g>
            <g class="cls-1">
              <path class="cls-3" d="m77.38,83.63c.39-.97.11-1.83-.46-2.67.13-.4.26-.81.34-1.05-.04-1.25-.08-2.31-.11-3.36-.51-1.16-1.07-2.28-1.16-3.58-.74-.83-1.01-1.84-.99-2.9-.4-.61-.76-1.19-1.12-1.75-.06-.54-.11-1.03-.17-1.48-.47-.78-.91-1.53-1.35-2.26-.07-.39-.15-.76-.22-1.14-.9-1.03-1.3-2.46-2.27-3.36-.08-.25-.15-.49-.2-.65-2.24-1.86-2.94-4.07-4.56-6.17-2.19-3.03-5.21-5.82-8.48-7.58-.31-.45-.55-.8-.78-1.14-.91-.16-1.4-.89-2.08-1.33-1.73-.46-3.74-.91-5.36-1.74-.72-.08-1.34-.13-1.93-.19-.27.11-.5.19-.79.31-1.72-1.19-3.93-1.03-5.9-1.17-.48.18-.97.24-1.48.12-2.5.22-4.98.33-7.48.54-.29.18-.61.38-.91.58-1.17.45-2.54-.03-3.36.96-.91.35-1.79.29-2.49,1.04-.44.42-1.17.4-1.62.73-.36.46-.67.84-.99,1.26-2.37.7-4.01,2.87-5.59,4.58-.43.21-.71.34-1,.48-.25.34-.52.69-.76.99-.21.1-.39.17-.52.23-.18.31-.35.57-.5.83-1.24,1.08-2.56,2.06-3.16,3.65-.8.76-1.2,1.74-1.55,2.65-.44.4-.81.73-1.14,1.02-.2.61-.38,1.13-.59,1.75-.86.42-1.13,1.38-1.67,2.08-.02.3-.03.54-.04.79-.25.27-.49.55-.78.88.07,1.64-1.05,3.08-1.82,4.34.04.37.07.68.11,1.04-.27.23-.56.46-.82.68-.02.33-.04.58-.04.83-.14.2-.28.4-.43.61-.05.81-.11,1.62-.16,2.31-.24.43-.42.76-.56,1.01.04.29.07.47.11.69-.45,1.16-.38,2.52.11,3.72-.99,1.39-.47,2.41.25,3.51-.43.9,0,1.82-.03,2.75.17.33.33.67.47.93.05.46.1.83.14,1.21.61,1.24,1.12,2.5,1.23,3.85.69.97,1.01,2.33,1.67,3.14.31.23.45.33.59.44,0,.95.71,1.59.91,2.56,1.41.9,2.24,2.49,3.52,3.5.59.83,1.51,1.29,2.14,2.02.29.08.53.14.76.2,4.49,3.89,9.07,6.88,14.95,7.79,3.29,1.05,6.45,2.48,9.84,3.03,2.51,1.31,5.86.65,8.5,1.63,2.03-.65,4.25.01,6.27-.34,3.87-1.59,7.43-3.54,10.92-5.89,4.24-1.25,6.71-5.49,8.66-9.14.23-.18.41-.34.55-.46v-.85c.7-.75,1.26-1.53,1.75-2.43.06-.36.13-.73.22-1.21.48-.76,1.02-1.6,1.64-2.57.02-.27.06-.7.11-1.19.85-1.11,1.02-2.49,1.3-3.76-.11-.44-.19-.8-.28-1.18.23-.59.46-1.17.7-1.78-.41-.97,0-1.96-.05-2.95Zm-7.9,8.27c-.14.28-.28.55-.41.82-.13.06-.24.12-.35.18-.93,1.68-.97,1.7-3.16,2.39-3.02-.18-5.93-.65-8.79-1.82-.64-.98-1.68-1.82-2.36-2.94-1.04-.8-1.73-1.96-2.87-2.62-.71-1.62-.79-1.95-.74-3.43.42-.86.43-.86,1.31-1.23.29.06.59.12.92.19.58-.17,1.18-.34,1.77-.51.44.1.87.18,1.34.29,1.64-.29,3.33-.4,5.01-.27.2-.07.44-.15.72-.25,1.07.05,2.19.11,3.36.18.61.38,1.25.77,1.91,1.19.88,1.03,1.63,2.14,2.32,3.31.03,1.21.22,2.38.56,3.57-.17.31-.33.63-.51.96Zm-13.93,15.65c-1.19.51-2.27.98-3.41,1.48-1.75.11-3.38.06-4.9-1.24-.04-.23-.08-.47-.14-.84-1.59-2.27-1.22-5.74-.17-8.32-.16-.95-.06-2.02.17-3.09.95-.9,1.93-1.63,3.37-1.33,1.25,1.64,3.6,1.21,4.97,2.66,1.61.6,2.43,1.84,3.53,3.15.46,1.22.57,2.6.34,3.96-.66.94-1.71,1.57-2.26,2.56-.61.32-1.24.5-1.51.99Zm-22.6.43c-2.8-.95-5.35-4.34-3.51-7.3.34-.18.57.11.88.21.74-1.73,2.04-2.92,2.71-4.73.55-.44,1.11-.94,1.39-1.66,1.38-.71,2.4-3.74,4.25-2.78.33.36.71.76,1.15,1.24.37,1.65.43,3.41.46,5.1-.02.96-.51,1.8-.15,2.77-1.03,3.18-1.46,6.41-5.52,7.16-.53-.14-1.07-.18-1.65,0Zm-7.19-12.04c-.34.75-.7,1.28-1.45,1.19-.14.21-.28.41-.45.65-1.07.44-1.89,1.49-3.12,1.53-.22,0-.43.23-.67.36-.29-.03-.6-.06-.91-.1-.19.15-.39.3-.58.45-2.57-.49-4.68-2.36-6.71-4.05-.2-.4-.44-.9-.76-1.54-.04-.28-.11-.71-.18-1.21.09-.36.18-.78.27-1.19-.09-.26-.27-.53-.23-.74.2-.93-.37-1.85,0-2.88,1.31-.74,2.26-2.04,3.52-2.85.29.03.54.05.88.09.42-.23.91-.5,1.4-.76.38-.06.69.24,1.07.35.26-.13.54-.27.85-.45.2.04.45.07.73.11.61-.23,1.22-.54,1.76-.98.18.05.35.11.6.19,1.38-.38,3.04-.67,4.47-.76,1.16.25,2.25.47,3.36.71.61.86.8,1.85,1.14,2.78-.17,1.06-.15,2.24.32,3.25-.39,1.74-1.89,2.92-2.78,4.33-.35.11-.64.22-.93.32-.48.49-1,.95-1.62,1.21Zm-19.49-17.13c-.18-.46-.37-.92-.54-1.35.1-3.82,2.69-5.92,4.85-8.75,1.86-.53,3.5-.11,5.09.84.53.05,1.09.11,1.72.18,1.29,1.22,3.02,1.84,4.52,2.79.47.04.9.1,1.36.14.35.25.71.49,1.02.81.33,1.2.61,2.22.92,3.3-.71.68-.86,1.74-1.65,2.51-.94.31-1.92.21-3,.26-.46.25-1,.55-1.62.9-1.21-.04-2.51.05-3.8-.18-1.8.15-3.62,0-5.38-.29-.75-.53-1.57-.32-2.42-.52-.32-.18-.69-.41-1.09-.65Zm11.37-19.36c.42-.33.81-.64,1.21-.96.25-.42.5-.85.82-1.39,1.09-1.04,2.39-2.11,3.24-3.4,1.5-.53,2.97-1.06,4.59-.9,1.37.7,1.84,1.71,1.95,3.03,1.58,1.84,2.78,7.02,2.38,9.42.15.32.27.61.4.9.07,1.38-1.52,1.67-2.48,2.19h-.89c-1.27.78-2.43.65-4.35.52-.65-.41-1.38-.92-2.28-.88-2.02-1.51-4.25-2.64-5.67-5.3-.03-.35-.06-.84-.1-1.32.42-.67,1.16-1.08,1.15-1.91Zm17.09,19.02c.08-.6.16-1.16.54-1.68.16-.1.37-.23.52-.32,1.55.04,3.1-.43,4.87.04.34.48.67.94,1.05,1.49.3,1.13.13,2.35-.07,3.62-.46.33-.9.67-1.38,1.01-1.37,0-2.68-.21-4-.82-.9-.96-1.06-2.25-1.55-3.35Zm5.5-13.46c-.47.14-.94.29-1.4.43-.79-.77-1.57-1.41-1.99-2.44-.04-.87-.57-1.49-1.05-2.15-.06-.63-.12-1.25-.18-1.85-.27-.31-.51-.6-.72-.84-.49-2.67-1.94-5.51-.65-8.12.72-.97,1.38-1.88,2.1-2.86.33-.2.76-.47,1.2-.74.3-.04.61-.07,1-.11.42-.22.92-.47,1.34-.69,1.08.04,2.25-.1,3.29.03.75.84,1.27,1.68,2.15,2.35.6,1.06.5,2.29,1.19,3.06.16,1.18-.46,1.99-.08,3.04-.18.8-.54,1.44-1.16,1.9v.85c-.62,1.67-2.33,2.72-2.44,4.63-.82,1.1-1.7,2.3-2.62,3.53Zm7.35-3.19c.78-1.45,1.52-2.85,2.7-4.06.83-.36,1.57-1,2.7-1.06,1.44.11,2.26,1.41,2.93,2.31-.66,4.35-1.43,5.18-6.25,7.97-.57.11-1.25.25-1.95.39-1.28-.07-3.34-1.88-1.42-2.7.34-.97.67-2.01,1.3-2.85Zm19.58,9.04c-.06.67.11,1.35.18,1.99-.16.26-.29.47-.43.7.1.21.18.43.28.67-.03.51-.55.63-.79,1.03.04.27.07.56.1.85-3.02,1.54-6.09,1.95-9.4,2.47-.99-.41-2.15.21-3.23-.02-.62-.63-1.36-.25-2.11-.44-.69-.17-1.34-.64-1.8-1.12-.47-1.06-.9-2.03-1.38-3.13.3-1.4,1.27-2.73,2.71-3.23.57-.86,1.2-1.73,2.33-1.86.3-.33.55-.61.86-.96,1.75-.24,3.25-1.76,4.73-2.49,2.28-.75,4.31-.86,6.1.9.51.75,1.06,1.57,1.71,2.54-.16.76.19,1.39.13,2.1Z"/>
            </g>
          </g>
          <g>
            <g class="cls-1">
              <path class="cls-3" d="m115.66,26.32c-.21-.99-.72-1.91-.65-2.77-.58-2.36-1.73-4.15-2.49-6.34-.24-.22-.44-.38-.57-.5-.09-.59.01-1.1-.24-1.61-.23-.14-.49-.3-.74-.45-1.65-4.54-5.72-7.36-9.57-9.82-.8-.38-1.6-.68-2.41-.93-.12-.22-.22-.39-.35-.61-1.73-.85-3.66-1.3-5.35-2.22-4.57-.73-9.24-1.32-13.97-.94-.82.4-1.57.95-2.34,1.42-1.14,1.09-2.53,2.27-3.88,3.04-.69,1.22-1.67,2.1-2.67,2.9-.91,1.7-2.35,2.97-2.92,4.85-.35.29-.66.54-.98.81-.24.8-.81,1.16-.72,2.15-.22.19-.45.38-.62.53-.81,2.37-2.72,4.01-2.4,6.62-.14.25-.27.47-.41.71.05.39.11.8.14,1.11-.1.33-.18.57-.24.75.09.32.16.56.23.78-.09.32-.17.62-.25.9.51,2.9.32,5.99.74,8.91.11.34.21.64.3.92-.04.27-.09.52-.12.72.17,1.76,1.13,3.03,1.32,4.79.23.35.54.85.92,1.07.36-.04.65-.08.91-.11.29.35.39.8.83.93,2.5,2.03,5.1,4.09,8.01,5.5,3.8,3.21,8.7,5,13.64,5.49.25-.09.44-.14.62-.2.19.11.37.21.5.28,1.19,0,2.23-.6,3.34-.3.63-.63,1.21-1.23,2.29-1.22.32-.25.61-.47.9-.68,1.5-.25,3.05-1.31,4.01-2.39.47-.24.83-.43,1.12-.57,1.45-2.06,4.33-2.66,5.25-5.2.41-.37.79-.71,1.13-1.03.49-1.4,1.4-2.43,2.47-3.37.42-.9.85-1.81,1.28-2.73.83-.42,1.02-1.23.99-2.21,1.44-2.31,2.58-4.91,3.34-7.49-.14-.51-.09-1.04-.38-1.49Zm-15,18.16c-.61,1.26-1.82,1.87-2.86,2.79-2.22.62-5.61-.19-5.5-3.02-1.42-2.62-.25-5.29-.8-8.01.35-.49.96-.73,1.43-1.1h1.24c2.13,1.4,4,2.97,5.53,5,.22.11.44.22.72.36.18.43.65,1.04,1.02,1.27.32.81.08,1.43-.19,2.06-.19.21-.46.4-.59.66Zm-10.81-14.78c-.34.33-.71.46-1.11.5-.76-.33-1.63-.82-2.34-1.24-.56-.71-.91-1.42-1.05-2.29.73-.53,1.63-.92,2.4-1.39,1.46-.06,1.7.09,2.28,1.33.01.2-.1.39-.16.58.51.77.44,1.75-.02,2.52Zm-2.59,18.21c-.3.45-.77.81-1.25,1-1.66.15-3.39.16-4.99-.76-.32-.04-.68-.07-1-.11-1.12-.83-2.64-1.11-3.18-2.53-.03-.07-.17-.09-.29-.15,0-1.78-.61-4.42,1.22-5.81h.66c.6-.53,1.28-1.11,1.94-1.64.17-.04.37-.09.64-.14.92-1.02,1.84-1.12,2.75-2.17.19-.03.44-.06.7-.1.19-.12.4-.26.62-.4,1.12-.05,1.49,1.13,2.29,1.68.24,1.35.82,2.34,1.1,3.8-.15.89-.06,1.94.28,2.99-.37,1.22-.27,2.54-.89,3.81-.15.14-.39.32-.6.54Zm-19.07-25.14c.19-.61.38-1.24.57-1.9.36-.21.7-.42,1.02-.59.4-.04.76-.07,1.08-.1,2.37.82,4.32,2.74,6.77,3.3.42.37.4.87.61,1.22-.16,2.09-1.32,2.33-2.87,2.82-.35-.04-.65-.08-1-.12-1.53.68-3.48.3-5.1.37-1.51-.27-1.19-1.8-1.46-3.01.14-.28.31-.59.5-.97-.02-.24-.06-.54-.11-1.02Zm5.73-9.73c.16-.34.39-.85.59-1.28,1.24-1.11,2.68-1.86,3.54-3.21,1.33-.41,2.58-.81,3.99-.02.43.57.92,1.21,1.46,1.91v1.02c.12.24.26.52.39.77-.63,1.85.29,3.45-.33,5.38.04.27.08.52.11.77-.27.44-.52.88-.8,1.35-.86.28-1.86.23-2.73.37-1.05-.39-2-.75-3.01-1.13-.09-.1-.23-.26-.39-.43-.21-.06-.45-.14-.72-.22-.55-.7-.97-1.53-1.75-2.14.04-.24.06-.49.11-.81-.27-.64-.59-1.35-.46-2.32Zm-5.2,20.29c.11-.21.27-.47.41-.73,2.64-1.28,5.52-2.13,8.36-2.62,1.54.04,2.73.77,3.99,1.58q.09,1.07-.27,2.42c-.39.32-.82.68-1.25,1.04-.1.23-.2.46-.32.72-1.92,1.57-4.33,2.26-6.36,3.69-2.35.96-4.5-4.09-4.55-6.09Zm20.18-15.15c-.7-.61-.78-1.63-1.18-2.47.14-1.06.13-2.22-.53-3.21.05-.2.09-.4.17-.7-.3-1.78-.17-3.43.76-5.1.48-.25.97-.51,1.35-.71,2.62-.4,5.18.19,7.35,1.71.21.33.7.91,1.05,1.18-.03.1-.06.19-.11.35.06.24.14.52.22.83-.17.83-.81,1.54-.77,2.42-.16.24-.29.45-.49.76-.12,1.26-1,2.32-1.41,3.62-1.66,1.47-4.28,2.01-6.41,1.32Zm11.73-1.4c.7-.66,1.65-1.13,2.68-1.56.69.22,1.37.37,2,.78.23.37.47.76.7,1.14.19.11.36.22.54.32.41.73.55,1.65,1.13,2.25.05.37.09.67.13,1,.11.15.22.32.37.52,0,2.28,1,3.44-1.7,4.64-.24-.14-.46-.25-.72-.4-.2.08-.43.16-.69.27-1.91-.32-4.22.23-6.31-.3-1.33.4-2.59.16-3.82-.66-.1-.27-.22-.61-.34-.95-.22-.2-.44-.4-.67-.61v-.46c.85-.76,1.67-1.51,2.55-2.31.13-.25.3-.56.45-.85.27-.12.5-.23.84-.37.59-.63,1.25-1.34,1.98-2.11.2-.07.48-.18.89-.34Zm.72,19.59c-.6-.33-.94-.55-1.47-1.09-.09-.04-.32-.13-.54-.22-.86-.96-1.67-1.96-2.72-2.58-.49-.89-1.44-2.07-.44-2.85,1.13-.41,2.53-.53,3.73-.12.29-.07.64-.16.97-.24,1.92.42,3.99.26,5.81,1.04.61.44.82,1.1,1.28,1.62.03.54.06,1.1.09,1.62-.87,1.26-1.39,2.95-3.01,3.24-.5.34-.97.65-1.39.93-1.06-.05-1.85-.42-2.29-1.35Z"/>
            </g>
            <g class="cls-1">
              <path class="cls-3" d="m77.29,83.52c.39-.97.11-1.83-.46-2.67.13-.4.26-.81.34-1.05-.04-1.25-.08-2.31-.11-3.36-.51-1.16-1.07-2.28-1.16-3.58-.74-.83-1.01-1.84-.99-2.9-.4-.61-.76-1.19-1.12-1.75-.06-.54-.11-1.03-.17-1.48-.47-.78-.91-1.53-1.35-2.26-.07-.39-.15-.76-.22-1.14-.9-1.03-1.3-2.46-2.27-3.36-.08-.25-.15-.49-.2-.65-2.24-1.86-2.94-4.07-4.56-6.17-2.19-3.03-5.21-5.82-8.48-7.58-.31-.45-.55-.8-.78-1.14-.91-.16-1.4-.89-2.08-1.33-1.73-.46-3.74-.91-5.36-1.74-.72-.08-1.34-.13-1.93-.19-.27.11-.5.19-.79.31-1.72-1.19-3.93-1.03-5.9-1.17-.48.18-.97.24-1.48.12-2.5.22-4.98.33-7.48.54-.29.18-.61.38-.91.58-1.17.45-2.54-.03-3.36.96-.91.35-1.79.29-2.49,1.04-.44.42-1.17.4-1.62.73-.36.46-.67.84-.99,1.26-2.37.7-4.01,2.87-5.59,4.58-.43.21-.71.34-1,.48-.25.34-.52.69-.76.99-.21.1-.39.17-.52.23-.18.31-.35.57-.5.83-1.24,1.08-2.56,2.06-3.16,3.65-.8.76-1.2,1.74-1.55,2.65-.44.4-.81.73-1.14,1.02-.2.61-.38,1.13-.59,1.75-.86.42-1.13,1.38-1.67,2.08-.02.3-.03.54-.04.79-.25.27-.49.55-.78.88.07,1.64-1.05,3.08-1.82,4.34.04.37.07.68.11,1.04-.27.23-.56.46-.82.68-.02.33-.04.58-.04.83-.14.2-.28.4-.43.61-.05.81-.11,1.62-.16,2.31-.24.43-.42.76-.56,1.01.04.29.07.47.11.69-.45,1.16-.38,2.52.11,3.72-.99,1.39-.47,2.41.25,3.51-.43.9,0,1.82-.03,2.75.17.33.33.67.47.93.05.46.1.83.14,1.21.61,1.24,1.12,2.5,1.23,3.85.69.97,1.01,2.33,1.67,3.14.31.23.45.33.59.44,0,.95.71,1.59.91,2.56,1.41.9,2.24,2.49,3.52,3.5.59.83,1.51,1.29,2.14,2.02.29.08.53.14.76.2,4.49,3.89,9.07,6.88,14.95,7.79,3.29,1.05,6.45,2.48,9.84,3.03,2.51,1.31,5.86.65,8.5,1.63,2.03-.65,4.25.01,6.27-.34,3.87-1.59,7.43-3.54,10.92-5.89,4.24-1.25,6.71-5.49,8.66-9.14.23-.18.41-.34.55-.46v-.85c.7-.75,1.26-1.53,1.75-2.43.06-.36.13-.73.22-1.21.48-.76,1.02-1.6,1.64-2.57.02-.27.06-.7.11-1.19.85-1.11,1.02-2.49,1.3-3.76-.11-.44-.19-.8-.28-1.18.23-.59.46-1.17.7-1.78-.41-.97,0-1.96-.05-2.95Zm-7.9,8.27c-.14.28-.28.55-.41.82-.13.06-.24.12-.35.18-.93,1.68-.97,1.7-3.16,2.39-3.02-.18-5.93-.65-8.79-1.82-.64-.98-1.68-1.82-2.36-2.94-1.04-.8-1.73-1.96-2.87-2.62-.71-1.62-.79-1.95-.74-3.43.42-.86.43-.86,1.31-1.23.29.06.59.12.92.19.58-.17,1.18-.34,1.77-.51.44.1.87.18,1.34.29,1.64-.29,3.33-.4,5.01-.27.2-.07.44-.15.72-.25,1.07.05,2.19.11,3.36.18.61.38,1.25.77,1.91,1.19.88,1.03,1.63,2.14,2.32,3.31.03,1.21.22,2.38.56,3.57-.17.31-.33.63-.51.96Zm-13.93,15.65c-1.19.51-2.27.98-3.41,1.48-1.75.11-3.38.06-4.9-1.24-.04-.23-.08-.47-.14-.84-1.59-2.27-1.22-5.74-.17-8.32-.16-.95-.06-2.02.17-3.09.95-.9,1.93-1.63,3.37-1.33,1.25,1.64,3.6,1.21,4.97,2.66,1.61.6,2.43,1.84,3.53,3.15.46,1.22.57,2.6.34,3.96-.66.94-1.71,1.57-2.26,2.56-.61.32-1.24.5-1.51.99Zm-22.6.43c-2.8-.95-5.35-4.34-3.51-7.3.34-.18.57.11.88.21.74-1.73,2.04-2.92,2.71-4.73.55-.44,1.11-.94,1.39-1.66,1.38-.71,2.4-3.74,4.25-2.78.33.36.71.76,1.15,1.24.37,1.65.43,3.41.46,5.1-.02.96-.51,1.8-.15,2.77-1.03,3.18-1.46,6.41-5.52,7.16-.53-.14-1.07-.18-1.65,0Zm-7.19-12.04c-.34.75-.7,1.28-1.45,1.19-.14.21-.28.41-.45.65-1.07.44-1.89,1.49-3.12,1.53-.22,0-.43.23-.67.36-.29-.03-.6-.06-.91-.1-.19.15-.39.3-.58.45-2.57-.49-4.68-2.36-6.71-4.05-.2-.4-.44-.9-.76-1.54-.04-.28-.11-.71-.18-1.21.09-.36.18-.78.27-1.19-.09-.26-.27-.53-.23-.74.2-.93-.37-1.85,0-2.88,1.31-.74,2.26-2.04,3.52-2.85.29.03.54.05.88.09.42-.23.91-.5,1.4-.76.38-.06.69.24,1.07.35.26-.13.54-.27.85-.45.2.04.45.07.73.11.61-.23,1.22-.54,1.76-.98.18.05.35.11.6.19,1.38-.38,3.04-.67,4.47-.76,1.16.25,2.25.47,3.36.71.61.86.8,1.85,1.14,2.78-.17,1.06-.15,2.24.32,3.25-.39,1.74-1.89,2.92-2.78,4.33-.35.11-.64.22-.93.32-.48.49-1,.95-1.62,1.21Zm-19.49-17.13c-.18-.46-.37-.92-.54-1.35.1-3.82,2.69-5.92,4.85-8.75,1.86-.53,3.5-.11,5.09.84.53.05,1.09.11,1.72.18,1.29,1.22,3.02,1.84,4.52,2.79.47.04.9.1,1.36.14.35.25.71.49,1.02.81.33,1.2.61,2.22.92,3.3-.71.68-.86,1.74-1.65,2.51-.94.31-1.92.21-3,.26-.46.25-1,.55-1.62.9-1.21-.04-2.51.05-3.8-.18-1.8.15-3.62,0-5.38-.29-.75-.53-1.57-.32-2.42-.52-.32-.18-.69-.41-1.09-.65Zm11.37-19.36c.42-.33.81-.64,1.21-.96.25-.42.5-.85.82-1.39,1.09-1.04,2.39-2.11,3.24-3.4,1.5-.53,2.97-1.06,4.59-.9,1.37.7,1.84,1.71,1.95,3.03,1.58,1.84,2.78,7.02,2.38,9.42.15.32.27.61.4.9.07,1.38-1.52,1.67-2.48,2.19h-.89c-1.27.78-2.43.65-4.35.52-.65-.41-1.38-.92-2.28-.88-2.02-1.51-4.25-2.64-5.67-5.3-.03-.35-.06-.84-.1-1.32.42-.67,1.16-1.08,1.15-1.91Zm17.09,19.02c.08-.6.16-1.16.54-1.68.16-.1.37-.23.52-.32,1.55.04,3.1-.43,4.87.04.34.48.67.94,1.05,1.49.3,1.13.13,2.35-.07,3.62-.46.33-.9.67-1.38,1.01-1.37,0-2.68-.21-4-.82-.9-.96-1.06-2.25-1.55-3.35Zm5.5-13.46c-.47.14-.94.29-1.4.43-.79-.77-1.57-1.41-1.99-2.44-.04-.87-.57-1.49-1.05-2.15-.06-.63-.12-1.25-.18-1.85-.27-.31-.51-.6-.72-.84-.49-2.67-1.94-5.51-.65-8.12.72-.97,1.38-1.88,2.1-2.86.33-.2.76-.47,1.2-.74.3-.04.61-.07,1-.11.42-.22.92-.47,1.34-.69,1.08.04,2.25-.1,3.29.03.75.84,1.27,1.68,2.15,2.35.6,1.06.5,2.29,1.19,3.06.16,1.18-.46,1.99-.08,3.04-.18.8-.54,1.44-1.16,1.9v.85c-.62,1.67-2.33,2.72-2.44,4.63-.82,1.1-1.7,2.3-2.62,3.53Zm7.35-3.19c.78-1.45,1.52-2.85,2.7-4.06.83-.36,1.57-1,2.7-1.06,1.44.11,2.26,1.41,2.93,2.31-.66,4.35-1.43,5.18-6.25,7.97-.57.11-1.25.25-1.95.39-1.28-.07-3.34-1.88-1.42-2.7.34-.97.67-2.01,1.3-2.85Zm19.58,9.04c-.06.67.11,1.35.18,1.99-.16.26-.29.47-.43.7.1.21.18.43.28.67-.03.51-.55.63-.79,1.03.04.27.07.56.1.85-3.02,1.54-6.09,1.95-9.4,2.47-.99-.41-2.15.21-3.23-.02-.62-.63-1.36-.25-2.11-.44-.69-.17-1.34-.64-1.8-1.12-.47-1.06-.9-2.03-1.38-3.13.3-1.4,1.27-2.73,2.71-3.23.57-.86,1.2-1.73,2.33-1.86.3-.33.55-.61.86-.96,1.75-.24,3.25-1.76,4.73-2.49,2.28-.75,4.31-.86,6.1.9.51.75,1.06,1.57,1.71,2.54-.16.76.19,1.39.13,2.1Z"/>
            </g>
          </g>
        </g>
      </g>
    </g>
  </g>
</svg>