<?xml version="1.0" encoding="UTF-8"?>
<svg id="_レイヤー_2" data-name="レイヤー 2" xmlns="http://www.w3.org/2000/svg" viewBox="0 0 101.93 73.16">
  <defs>
    <style>
      .cls-1 {
        fill: none;
        opacity: .7;
      }

      .cls-2 {
        fill: #b28146;
      }
    </style>
  </defs>
  <g id="_イラスト" data-name="イラスト">
    <g class="cls-1">
      <path class="cls-2" d="m86.12,53.51c-2.59-2.06-4.46-4.3-6.72-6.73-2.16-2.32-4.29-4.57-6.46-6.89-2.79-2.99-6.01-5.35-9.2-7.89-1.27-1.01-2.49-2-3.61-3.19-1.79-1.9-3.46-4-5.3-5.79l-.42-.41c-.33-.33-.71-.61-1.11-.91-.72-.54-1.46-1.09-1.96-1.94-.11-.17-.08-.4.05-.54.14-.13.35-.19.53-.11,3.7,1.67,7.11,3.46,10.71,5.37l2.23,1.18c3.96,2.08,7.32,5.31,10.56,8.45.77.74,1.52,1.47,2.28,2.18,3.08,2.88,5.62,6.52,8.07,10.05,1.09,1.58,2.23,3.2,3.37,4.7,1.46,1.92,2.86,3.89,4.26,5.86.65.92,1.33,1.85,2.13,2.66.5.5,1.07,1.06,1.58,1.67l-4.08-.13c-.5-.53-.95-1.1-1.48-1.58-1.54-1.4-2.94-2.79-4.15-4.5-.39-.56-.77-1.08-1.28-1.5"/>
      <path class="cls-2" d="m34.75,10.37c-1.49.51-3.06.5-4.53-.1-2.27-.93-4.62-5.07-2.95-7.25.88-1.15,1.53-2.49,3.09-2.87,1.6-.39,3.56.06,5.11.5.05.02.08.04.13.05.2.05.38.12.53.22,1.12.8,1.82,1.98,2.71,3.03.99,1.16.49,2.41-.21,3.55-.73,1.17-2.56,2.43-3.87,2.87"/>
      <path class="cls-2" d="m33.27,13.72c.14.06.27.13.34.19.12.08.19.17.24.26,1.88,1.92,2.41,4.59.36,6.66-2.02,2.05-4.95,1.37-6.88-.31-1.9-1.65-2.94-4.05-.95-6.1,1.94-2.01,4.61-2.03,6.89-.7"/>
      <path class="cls-2" d="m46.11,13.09c.36,2.31-.5,4.66-2.85,5.42-1.15.38-2.39.16-3.48-.27-1.19-.47-1.65-1.46-2.08-2.58-.67-2.24,1.14-4.31,3.25-4.82,1.85-.44,4.8.02,5.15,2.25"/>
      <path class="cls-2" d="m83.17,32.35c1.15,1.41,2.28,2.83,3.38,4.27,1.1,1.44,2.18,2.89,3.24,4.35,1.07,1.45,2.12,2.92,3.16,4.4l1.57,2.2c.53.73,1.05,1.46,1.57,2.21,1.04,1.49,2.06,3,3,4.56.47.79.91,1.59,1.33,2.41.42.82.81,1.65,1.15,2.5.14.35.23.7.36,1.05-.83-.01-1.66,0-2.48-.03-.09-.2-.17-.4-.26-.61-.39-.79-.8-1.58-1.25-2.35-.45-.77-.92-1.52-1.41-2.25-1.96-2.97-3.47-5.75-5.65-8.65-4.35-5.75-8.03-11.5-12.81-16.82-1.2-1.33-2.41-2.65-3.66-3.92-1.24-1.28-2.52-2.53-3.84-3.72-1.32-1.2-2.68-2.33-4.09-3.4-.71-.54-1.42-1.06-2.16-1.56-.73-.5-1.48-.98-2.23-1.45-.38-.23-.77-.45-1.15-.68-.39-.23-.78-.46-1.17-.7l-2.31-1.4c-1.53-.92-3.08-1.78-4.7-2.44-.41-.17-.81-.32-1.22-.45-.41-.13-.83-.25-1.26-.34-.85-.2-1.72-.32-2.6-.42-1.04-.11-2.13-.22-3.17-.13-.65.06-1.68.06-2.13-.55-1-1.36,1.72-1.23,2.21-1.23,1.26,0,2.52-.02,3.77.11,2.35.25,4.83,1.03,6.99,1.93,1.42.59,2.81,1.21,4.24,1.79,1.14.46,2.31,1.04,3.29,1.76,2.17,1.59,4.47,2.96,6.2,5.04.91,1.09,2.06,1.95,3.12,2.89,1.26,1.12,2.48,2.29,3.67,3.5,1.28,1.3,2.52,2.63,3.74,3.98,1.21,1.36,2.4,2.74,3.55,4.14"/>
      <path class="cls-2" d="m14.86,8.96c1.91-2.54,4.5-1.85,7.16-1.24,3.11.72,3.67,4,2.26,6.54-3.05,5.51-12.57.23-9.42-5.3"/>
      <path class="cls-2" d="m8.67,22.67c-1.28-.8-1.58-1.79-2.41-2.95-.71-1-.76-2.07-.38-3.2,2.4-4.95,9.08-.01,7.93,4.31-.6,2.23-3.27,3.01-5.14,1.85"/>
      <path class="cls-2" d="m17.08,18.75c1.19-.6,2.46-.69,3.76-.5,2.42.37,4.3,2.3,4.16,4.84-.13,2.33-3.38,3.76-5.42,3.41-1.26-.22-2.56-.65-3.47-1.6-1.02-1.05-1.07-2.12-.8-3.51.27-1.24.61-2.05,1.77-2.64"/>
      <path class="cls-2" d="m9.4,25.2c.8-.42,2.15-.13,2.92.19,1.75.73,2.91,2.15,2.23,4.09-.68,1.94-2.43,2.16-4.17,1.53-1.41-.52-3.19-2.75-2.33-4.25.3-.7.66-1.21,1.34-1.56"/>
      <path class="cls-2" d="m.46,29.66c1.88-2.61,8.62-.65,6.54,2.83-.97,1.63-3.02,1.71-4.64,1.09-.84-.32-1.53-.8-2.06-1.52-.55-.75-.24-1.68.16-2.39"/>
      <path class="cls-2" d="m20.7,48.2c.48.95.31,2.77-.04,3.74-1.13,3.12-4.34,3.21-7.12,2.52-1.05-.27-2.47-.75-2.89-1.88-.44-1.2-.25-2.72.33-3.82.02-.03.06-.05.08-.07.01-.04,0-.07.02-.1.63-1.06,1.2-1.94,2.43-2.35,1.35-.44,2.75-.57,4.11-.09,1.15.41,2.49.89,3.08,2.04"/>
      <path class="cls-2" d="m23.94,39.27c1.29-.14,2.69.12,3.84.71,1.03.53,1.87,1.19,2.47,2.18.49.79,1.78,2.68,1.05,3.59-1.68,2.09-3.97,3.32-6.64,2.3-2.71-1.04-4.49-3.94-3.23-6.74.6-.89,1.36-1.92,2.51-2.04"/>
      <path class="cls-2" d="m33.43,48.17c2.68-3.88,9.62-.5,8.11,4.01-1.71,5.06-10.21.47-8.11-4.01"/>
      <path class="cls-2" d="m21.22,65.83c1.57,1.27,2.63,3.51,1.76,5.49-.88,2-4.12,2.24-5.81,1.32-.04-.02-.05-.04-.09-.06-.16-.09-.31-.19-.44-.31-1.58-1.39-2-4.03-.97-5.88,1.18-2.11,3.84-1.93,5.55-.56"/>
      <path class="cls-2" d="m9.65,58.72s0-.01,0-.02c.01-.02.03-.03.04-.05.01-.01.02-.03.04-.04,1.2-1.61,3.48-2.3,5.37-1.62.91.32,1.76.86,1.92,1.89.14.95-.46,2.08-.86,2.92-.39.84-.49,1.93-1.49,2.31-.98.37-1.99.27-2.94-.14-.94-.4-1.4-1.21-1.88-2.06-.6-1.06-.47-1.95-.28-3.07,0-.05.05-.08.09-.12"/>
      <path class="cls-2" d="m20.14,62.3c-1.08-.72-1.42-2.97-.02-3.51,1.31-1.25,3.21-1.04,4.63-.04,1.27.89,1.02,2.58.04,3.55-1.29,1.28-3.27.93-4.65,0"/>
      <path class="cls-2" d="m24.35,55.07c-.62-1.34-.11-1.83.94-2.68,1.78-1.34,4.41-1.2,6.2.05,1.93,1.34,2.35,3.76.84,5.56-1.45,1.73-4.55.84-6.14-.21-.99-.66-1.37-1.69-1.84-2.72"/>
      <path class="cls-2" d="m47.62,43.25c1.06-.2,2.12-.43,3.21-.49,1.15-.06,2.22-.02,3.36.1,1.25.14,2.51.42,3.75.63,2.44.4,4.84,1.08,7.15,1.94,1.15.44,2.29.92,3.41,1.45,1.11.53,2.21,1.1,3.27,1.7,2.14,1.19,4.24,2.46,6.27,3.82,1.02.68,2.02,1.37,3.02,2.09.5.36.99.72,1.48,1.1.23.18.49.38.73.57.25.2.49.39.72.6,1.89,1.63,3.5,3.52,4.98,5.48.28.38.54.77.82,1.15-.67-.02-1.34-.03-2.01-.05-1.44-1.71-2.97-3.33-4.67-4.74-.23-.19-.46-.37-.69-.55-.23-.18-.47-.35-.72-.53-.49-.35-.98-.7-1.47-1.05-.99-.69-1.99-1.36-3-2.01-2.03-1.3-4.1-2.55-6.2-3.72-.53-.29-1.06-.58-1.58-.87-.53-.27-1.06-.55-1.6-.81-1.08-.52-2.17-1.01-3.28-1.45-2.22-.89-4.51-1.32-6.85-1.8-1.17-.24-2.35-.42-3.53-.53-1.19-.12-2.38-.44-3.58-.43-1.47.02-2.91.23-4.34.54-.74.15-2.57.96-3.03-.16-.57-1.38,3.56-1.82,4.39-1.98"/>
      <path class="cls-2" d="m38.96,43.73c-1.25.35-3.34-.19-4.5-.68-1.08-.45-2.31-1.53-2.74-2.63-.68-1.75-.43-3.07.64-4.57,2.02-1.89,5.09-2.56,7.53-1.19,2.43,1.36,3.63,4.12,1.89,6.6-.79,1.12-1.49,2.09-2.83,2.47"/>
    </g>
  </g>
</svg>