<?xml version="1.0" encoding="UTF-8"?>
<svg id="_レイヤー_2" data-name="レイヤー 2" xmlns="http://www.w3.org/2000/svg" viewBox="0 0 188.74 139.2">
  <defs>
    <style>
      .cls-1 {
        fill: #b28146;
      }

      .cls-2 {
        fill: #f9f4e9;
      }
    </style>
  </defs>
  <g id="_イラスト" data-name="イラスト">
    <g>
      <path class="cls-2" d="m24.54,2.16l.04-.11c.02-.24-.11-.42-.26-.58h0c-.19-.22-.09-.56-.3-.77v.02c-.08-.15-.19-.29-.33-.41-.43-.38-.93-.34-1.44-.22l-.11.09-.14-.02c-.3.09-.65.02-.89.28-.13.07-.27.14-.4.2-.06.1-.14.13-.26.09-.2.01-.36.13-.52.22l-.1.09-.13-.02c-.23,0-.4.13-.55.27h.01c-.14.1-.28.19-.43.27l-.03.02c-.1.13-.23.24-.38.31l-.02.02c-.1.13-.25.23-.34.37-.28.15-.26.5-.47.69v-.02c-.26.16-.23.51-.45.7h0c-.27.18-.25.53-.44.76.03.12,0,.22-.11.28-.17.27-.24.57-.36.86l.03.12-.1.08c-.41.45-.15,1.1-.49,1.57-.04.2-.09.39-.13.59-.26.34-.29.7-.13,1.09.08.11.08.22,0,.33.17.24.07.58.28.8.59.46,1.31.26,1.97.4.05,0,.09-.04.13-.06-.02.02-.04.04-.06.08-.04.07,0,.13.13.19.13-.02.24.01.34.1.11.1.23.11.36.04.12-.05.23-.06.35-.02.23-.19.57-.08.79-.3.12-.08.26-.16.4-.21.07-.09.15-.13.26-.1.21-.03.37-.13.49-.31.03,0,.07-.03.12-.08.03-.04.04-.08.02-.12.13-.03.23-.09.28-.25,0-.12.06-.19.18-.2.07-.13.17-.24.3-.32h0c.23-.18.18-.53.45-.67v-.02c.14-.14.3-.27.37-.46-.02-.12.02-.2.13-.25.12-.15.27-.28.31-.48-.04-.11,0-.18.11-.22.2-.2.18-.53.41-.71h0c.25-.21.28-.55.43-.82-.04-.11,0-.18.1-.23.21-.22.2-.54.4-.77-.03-.12,0-.22.1-.29.26-.59.38-1.2.16-1.83l-.08-.08Zm-6.8,8.31s.02,0,.02-.01c0,0,0,0,0,0,0,0-.02,0-.02.01Z"/>
      <polygon class="cls-2" points="15.62 10.16 15.61 10.15 15.6 10.14 15.62 10.16"/>
      <path class="cls-2" d="m77.57,46.67c-.47-.55-1.1-.32-1.69-.3-.12,0-.24,0-.36.01-.21.2-.57.08-.75.34-.25.11-.57.03-.75.3-.19,0-.32.15-.47.23h-.02c-.46.25-.84.59-1.21.96l-.03.03c-.11.13-.23.25-.36.36h0c-.24.16-.22.51-.45.69h0c-.24.17-.21.52-.45.68h0c-.22.19-.23.5-.4.72-.43.23-.17.8-.52,1.07v-.02c-.26.21-.28.55-.43.83.04.11,0,.18-.11.22-.2.24-.23.56-.38.82.05.11.03.19-.08.24-.33.31-.15.82-.45,1.14.06.12.03.21-.08.29-.35.54-.27,1.14-.3,1.74.06.04.1.07.15.09,0,0,0,0,0,0-.32.41.07.55.28.76h-.02c.33.32.69.34,1.08.12h-.01c.56-.26,1.09-.08,1.61.14.19.03.37.06.56.09.25-.17.58-.08.82-.26h0c.18-.2.54-.1.69-.36.26-.04.4-.19.46-.44,0-.11.05-.17.16-.18.09-.13.2-.24.32-.33h0c.16-.13.32-.27.37-.48-.02-.11.02-.18.13-.21.18-.2.15-.52.4-.68h0s.07-.04.11-.13c.03-.07,0-.14-.08-.21.18-.08.28-.26.39-.44-.04-.12,0-.22.1-.29.19-.23.2-.55.38-.79-.04-.12,0-.21.1-.27.2-.22.2-.54.39-.77-.04-.12-.02-.22.09-.29.4-.6.14-1.37.52-1.98-.03-.04-.08-.1-.07-.13.02-.1.07-.18.11-.27-.18-.41.08-.89-.2-1.28h0c-.21-.42-.23-.78.3-1,.41-.17.58-.41.14-.75Z"/>
      <path class="cls-2" d="m34.93,68.9c-.3-.34.03-.79-.21-1.14-.09-.07-.11-.15-.05-.25-.09-.3-.04-.63-.24-.9h0c-.18-.22-.08-.55-.28-.78h0c-.2-.21-.09-.55-.32-.74-.06-.17-.18-.3-.3-.44h0c-.1-.14-.22-.27-.32-.41h0c-.11-.13-.22-.27-.32-.41h0c-.12-.13-.22-.27-.35-.37-.1-.2-.24-.35-.47-.41-.11.02-.18-.02-.21-.13-.15-.12-.28-.28-.48-.32l-.13.02-.08-.1c-.46-.31-.95-.35-1.46-.17l-.1.08-.13-.04c-.23,0-.39.13-.54.28h.01c-.16.1-.31.22-.4.39.02.12-.02.22-.13.28-.1.12-.2.24-.3.37-.28.13-.26.49-.48.67h0c-.37.3-.19.82-.47,1.17.09.18.07.35-.06.51.1.21.05.41-.06.61.02.05.08.11.07.15-.02.1-.08.2-.12.3.26.66-.21,1.37.1,2.03h0c.33.32-.07.82.3,1.13.13.23.06.55.3.74.04.18.16.32.28.45h0c.11.13.2.27.28.42l.02.03c.13.15.21.35.4.43-.01.09-.02.17-.02.26.19.09.24.26.25.46.13.23.26.47.39.7.19.09.26.24.27.44.07.02.14.05.21.08-.01.05-.03.1-.04.15.05.07.1.13.16.2v-.02c.08.16.19.31.34.42l-.03-.03c.54.46,1.17.35,1.8.31.1-.07.21-.09.32-.06.14-.06.18-.15.13-.28.05.03.11.05.17.06.05-.07.1-.13.14-.2l.2-.98c.17-.55.77-.39,1.11-.64.13-.1.17-.23.09-.39.05-.04.08-.09.06-.17,0,0,0-.02-.01-.02.11.01.21-.01.31-.09.03-.12.06-.24.09-.36.1-.11.13-.23.11-.38-.04-.18-.05-.36-.05-.54.12-.36.15-.72.12-1.09,0-.01,0-.03,0-.04.04-.22.14-.41.22-.61.04-.22.06-.44-.1-.64h0Z"/>
      <path class="cls-2" d="m79.92,29.47c-.25-.36.03-.81-.18-1.18-.08-.11-.08-.23-.02-.35-.28-.35.03-.8-.2-1.16-.09-.04-.12-.11-.07-.2.02-.23-.12-.41-.24-.58h0c-.21-.19-.11-.54-.36-.69-.04-.25-.19-.39-.43-.45-.12-.01-.19-.08-.2-.2-.14-.05-.23-.15-.28-.29l-.03-.02c-.14-.09-.23-.25-.38-.33-.08-.21-.22-.36-.45-.42-.11.02-.18-.02-.21-.13-.24-.18-.55-.2-.79-.37-.21-.05-.43-.1-.64-.15-.35-.17-.7-.34-1.05-.02-.19.05-.33.16-.42.33-.26.11-.22.49-.5.59l-.02.03c-.11.15-.26.27-.35.44.02.12-.02.21-.13.28-.16.24-.18.55-.36.78-.05.22-.1.43-.15.65-.31.67-.28,1.39-.31,2.11.09.03.15.04.23.05-.02.01-.04.03-.06.05-.19.06-.24.17-.15.35,0,.34,0,.67-.01,1.01.05.16.14.23.26.23,0,0,0,.01,0,.02,0,.22,0,.44-.01.66-.04.07-.07.14-.11.21-.09.15-.11.32-.04.48.01.2.03.41.04.61.17.41-.06.87.16,1.27.09.06.11.14.05.24,0,.2.12.35.18.53.09.1.11.22.06.34.17.24.07.59.29.81.15.22.07.55.32.74.04.18.16.31.26.46h0c.12.13.21.26.28.42l.03.04c.16.08.26.23.4.34l.5.02c.24.01.41-.11.58-.26.25-.19.23-.54.44-.75-.03-.13.01-.23.12-.31.17-.21.14-.52.38-.69h0c.23-.23.26-.56.41-.83.16-.29.4-.3.68-.22.19,0,.34-.13.51-.19.06-.1.15-.13.26-.1.13-.02.2-.08.2-.17.12,0,.23-.04.32-.14l-.03.02c.17-.08.32-.19.42-.35.27-.18.28-.52.44-.78l.17-.61c.25-.59.34-1.19.18-1.82-.08-.11-.08-.22-.02-.33Zm-7.05.62s-.02,0-.02,0c0-.01,0-.02.01-.04,0,.01,0,.02.01.03Zm2.98,2.98s.07,0,.11,0c-.04.04-.08.07-.11.12,0-.04,0-.08,0-.12Z"/>
      <path class="cls-2" d="m67.52,13.79l.08-.19c-.01-.21-.02-.41-.03-.62-.04-.04-.08-.09-.12-.14,0-.04,0-.08.01-.12,0-.45.22-.91,0-1.36-.09-.09-.1-.18-.03-.29-.23-.38.09-.86-.24-1.22v.02c-.15-.24-.06-.58-.28-.8v.02c-.07-.16-.19-.29-.29-.43h0c-.12-.13-.22-.27-.31-.41h-.01c-.13-.13-.23-.28-.36-.39h.02c-.17-.25-.53-.22-.72-.45-.47-.05-.94-.1-1.41-.16-.34.29-.83-.07-1.16.26h.02c-.22.17-.57.07-.75.32-.18.04-.31.16-.43.28-.26.23-.3.57-.43.85-.05.19-.11.38-.16.57-.28.55-.25,1.15-.26,1.74.07.04.12.05.18.07,0,0,0,0-.01,0-.43.43-.35.94-.25,1.46,0,.34-.02.67-.02,1.01.19.39-.04.84.16,1.24.07.1.08.2.04.31.14.26.07.57.2.83.08.09.1.19.05.3.12.28.06.6.22.86v.02c.24.19.12.54.34.73.15.24.07.57.29.78.15.23.07.56.32.75.06.15.13.29.21.43.09.04.12.11.08.21,0,.26.11.44.35.54.1.25.31.26.54.23l-.06.13.13.12h0c.2.23.45.26.72.13.06-.08.14-.1.23-.06.76-.42.21-1.33.69-1.86-.02-.13.04-.21.16-.24.06-.08.09-.17.12-.26.19,0,.38-.02.56-.03l.4-.33c0-.13.01-.26.02-.38h0s0-.01,0-.01c0,0,0,0,0-.01h0c.17.14.28.11.35-.1-.03-.09,0-.15.09-.19l-.05-.38h0c.02-.09.04-.19.06-.28.03,0,.06,0,.1,0,.07-.1.11-.21.14-.33.09,0,.16-.04.19-.17-.05-.11-.03-.19.07-.26,0-.12.01-.25.02-.37.1-.18.2-.36.25-.56.05-.53.16-1.05.13-1.58-.06-.07-.09-.15-.12-.23Z"/>
      <path class="cls-2" d="m52.66,45.02c.11-.13.24-.24.38-.33h0c.12-.13.27-.22.37-.36.17-.08.31-.19.39-.36.19-.05.33-.16.4-.35.3-.09.27-.47.51-.61h0c.24-.21.25-.55.42-.8-.03-.12,0-.21.12-.26.18-.21.17-.54.39-.73-.03-.13,0-.24.11-.33.18-.22.16-.53.38-.72-.03-.13.01-.24.11-.34.16-.28.24-.58.36-.87-.08-.4-.02-.77.13-1.14-.17-.41.06-.87-.16-1.28-.09-.08-.11-.16-.03-.26-.2-.4.07-.87-.2-1.25h0c-.2-.22-.1-.54-.27-.78h0c-.1-.15-.18-.31-.3-.42.02-.02.04-.05.07-.09.04-.08,0-.16-.09-.24-.08-.15-.2-.27-.27-.43l-.02-.03c-.14-.11-.26-.24-.38-.37h-.13s-.13-.02-.13-.02c-.23.1-.3.29-.28.52.12.08.14.17.07.26.01-.12-.03-.2-.13-.25-.1,0-.21.02-.32.03-.31-.24-.77-.12-1.07-.37-.3.08-.58.01-.86-.1-.15.06-.33.07-.42.2,0,0,0,0-.01,0-.16-.06-.29-.03-.41.1l.03-.02c-.17.07-.31.19-.44.34-.16.08-.3.19-.41.33l.02-.02c-.19.1-.34.23-.41.44.02.12-.03.19-.14.24-.12.15-.27.28-.31.48.03.11,0,.18-.11.21-.13.14-.28.27-.33.47.01.12-.03.19-.15.23-.09.12-.19.24-.29.35-.28.15-.25.51-.48.69h0c-.38.28-.19.81-.48,1.14-.05.21-.11.42-.16.63-.31.47-.11,1.09-.45,1.55-.07.66-.15,1.32-.22,1.99.33.64-.26,1.36.16,1.99-.18.07-.2.18-.02.33.12.23.06.54.29.72.06.22.2.37.42.44.11,0,.18.04.23.13.35.19.71.25,1.08.09.05-.09.12-.11.21-.07.23.01.41-.12.58-.25h0c.08-.04.12-.11.13-.18.36.04.73.02,1.03.28.19.01.38.03.57.04.2-.03.35-.15.52-.26h.01c.12-.13.25-.23.4-.31l.02-.02Zm.02-11.45s.04,0,.06-.02c0,0,0,.02-.01.03l-.04-.02h-.12s-.06-.03-.09-.04c0,0,0,0,0,0,.07.02.14.03.2.05Z"/>
      <path class="cls-2" d="m30.19,25.64c-.08-.31-.03-.65-.25-.91v.02c-.16-.24-.06-.58-.3-.78-.06-.16-.18-.28-.24-.44l-.02-.03c-.37-.26.07-.8-.35-1.05-.13-.31-.49-.29-.7-.48h-.16s-.12-.08-.12-.08c-.22-.21-.46-.23-.72-.1-.12,0-.24,0-.36,0-.23.19-.55.1-.8.24l.02.14c-.08-.03-.17-.06-.26-.07-.02.05-.05.1-.07.15-.03,0-.07.01-.1.02-.06.04-.12.08-.18.12,0,0-.01.01-.02.02-.04,0-.07,0-.11,0,0,.04,0,.08-.01.12-.06.05-.12.1-.17.16-.04.08-.05.16-.07.24-.09-.01-.18.01-.24.1h0c-.23.2-.21.54-.43.74.03.13,0,.24-.1.33-.33.44-.07,1.07-.46,1.49.05.12.02.22-.09.3-.53,1.06-.13,2.3-.68,3.35,0,.59,0,1.19-.24,1.75-.4.69-.25,1.49-.4,2.22-.01.21.07.38.18.54,0,.04-.02.08-.01.12.04.02.09.02.14.03.02.02.05.05.07.07.03.02.05.03.08.04-.13.11-.1.21.14.29.1,0,.17.05.21.14.36.18.72.28,1.09.05h0s.06-.03.09-.09c.03-.06.02-.13-.03-.2.1.06.21.08.33.04.26-.12.51-.08.76.06.23.17.48.18.74.05h.04c.07-.14.17-.21.32-.22.04-.11.12-.16.23-.16.37,0,.35-.46.64-.55l.05-.06c.08-.14.2-.25.34-.33h.01c.12-.15.28-.24.37-.4l-.03.03c.16-.09.23-.22.19-.4,0-.01,0-.02,0-.04.1-.08.2-.16.31-.24.05-.41.17-.77.49-1.06.03-.24.06-.47.08-.71.31-.16.21-.6.43-.82-.06-.11-.04-.19.07-.25.4-.94.46-1.92.35-2.92,0-.2-.02-.4-.02-.6Z"/>
      <polygon class="cls-2" points="75.43 36.71 75.43 36.72 75.43 36.72 75.43 36.71"/>
      <path class="cls-2" d="m33.29,48.87s.01,0,.02,0c0,0,0,0,0,0h-.03Z"/>
      <path class="cls-2" d="m40.49,54.46c-.1-.07-.11-.16-.04-.25-.09-.29-.06-.6-.17-.88-.08-.1-.1-.21-.04-.33-.16-.24-.06-.59-.31-.8-.07-.14-.14-.27-.21-.41-.1-.07-.12-.16-.08-.28-.04-.21-.15-.36-.31-.49-.07-.17-.18-.31-.34-.4-.04-.09-.1-.13-.18-.13-.02-.11-.06-.21-.17-.29l.03.03c-.06-.19-.17-.34-.37-.41-.1-.3-.47-.27-.63-.5h.01c-.21-.25-.55-.27-.81-.43h-.14s-.1-.09-.1-.09c-.22-.21-.46-.24-.72-.1l-.14.08-.16-.04c-.75.34-1.55-.3-2.29.12-.16.07-.27.2-.44.24l-.06.03c-.08.14-.2.24-.35.31l-.02.04c-.37.72-.25,1.52-.39,2.27,0,.16.06.31.13.45-.03.07-.06.15-.08.22,0,.12.01.25.02.37.05.09.12.14.21.17.01.09.05.17.11.24-.03,0-.07.03-.11.1-.05.07-.03.16.04.26.09.05.12.13.07.23,0,.21.11.37.2.54.09.07.12.16.08.27.03.2.15.35.23.53v.04c.27.18.15.51.3.73v.03c.14.14.22.34.39.43,0,.08,0,.17,0,.25.2.08.28.24.28.44.19.08.28.23.29.43.19.07.3.21.33.41.11.14.22.27.33.41.11.14.22.27.33.41.11.14.22.27.32.41.09.02.17.03.26.05-.01.12.02.24.12.33l-.03-.02c.1.21.25.37.49.42.1,0,.17.04.19.14.37.15.73.36,1.08-.04-.06-.33-.08-.64.41-.63.26-.16.58-.07.83-.25h0c.08-.07.11-.14.11-.23.1-.02.2-.05.29-.11h0c.09-.08.15-.18.19-.3.08,0,.14-.03.2-.12,0-.1,0-.21-.02-.31l.13.05c.06-.1.11-.21.14-.32.08,0,.15-.04.2-.12-.02-.11.02-.2.11-.27,0-.08-.02-.16-.02-.24.11-.15.22-.29.23-.49,0-.74.32-1.46.09-2.2Z"/>
      <path class="cls-2" d="m5.86,62.46c-.27-.35.09-.84-.27-1.17-.05-.16-.18-.28-.25-.44v-.03c-.25-.16-.13-.54-.39-.68-.07-.16-.2-.22-.38-.16-.02,0-.03.02-.05.03-.02-.02-.04-.03-.05-.05,0-.01.01-.02.01-.03.01-.12-.02-.22-.1-.3l-.03-.02c-.15-.11-.27-.26-.45-.35h-.15s-.11-.12-.11-.12c-.24-.17-.55-.19-.78-.37h-.16s-.12-.1-.12-.1c-.35-.23-.71-.3-1.1-.09h0c-.51.19-.59.71-.82,1.11.05.12.02.22-.09.29-.35.48-.16,1.12-.47,1.6v.03c.24.8-.21,1.6,0,2.4.03,0,.05,0,.07.01-.03.01-.07.03-.11.06-.07.06-.06.16.03.28.08.09.09.18.03.29-.07.31-.07.61.19.85H.29c.08.11.09.22.03.34.27.36-.05.82.22,1.18h0c.21.22.11.54.26.78v.03c.12.14.21.3.35.4-.02.02-.05.05-.08.09-.04.07,0,.13.11.2.12.3.49.27.68.49.3.02.6.05.89.07.57-.05.22-.78.67-.92l.05-.04c.29,0,.54-.07.67-.36.36-.1.44-.39.47-.71-.02-.13.03-.23.13-.31.1-.16.25-.28.3-.47-.04-.1-.01-.18.09-.22.4-.41.07-1.06.5-1.46.07-.7.15-1.41.22-2.11Zm-2.37,5.37s0,.01.01.02c0,0,0,0-.01,0,0,0,0-.01,0-.02Z"/>
      <path class="cls-2" d="m18.81,48.49c-.25-.52.14-1.09-.14-1.61-.09-.07-.1-.16-.03-.25-.09-.29-.04-.63-.23-.89h0c-.19-.22-.1-.55-.27-.78h0c-.11-.17-.19-.36-.35-.45.02-.1.04-.21.04-.31-.1-.14-.2-.28-.3-.42-.11-.14-.22-.27-.33-.41-.11-.14-.22-.27-.32-.41-.19-.06-.33-.16-.38-.36-.29-.07-.53-.2-.65-.48h-.17s-.09-.03-.09-.03c.01-.16-.06-.28-.21-.34-.1,0-.17-.03-.22-.12-.2-.19-.53-.16-.7-.4-.12-.04-.24-.08-.36-.12-.14-.09-.29-.1-.44-.02-.01.02-.01.04-.02.06-.32-.11-.65-.17-.98-.07h0s-.18-.04-.18-.04h-.18c-.11.07-.21.15-.32.24-.02-.03-.03-.07-.06-.1-.3.21-.48.49-.51.85.08.08.18.11.29.11.04.09.05.18.05.27.08.01.16.02.24.04-.1.24-.1.52-.33.69h0c-.37.7-.37,1.44-.3,2.19,0,.13.02.25.02.38.31.33-.03.79.21,1.13.09.07.1.15.05.25,0,.21.15.36.22.54l.12-.04c-.04.11-.06.21-.07.32.07.15.15.31.22.46.08.08.11.17.08.28.03.19.16.35.24.52l.02.04c.25.18.12.54.35.72v-.02c.53.7.97,1.46,1.28,2.28h-.02c.05.19.16.27.33.24,0,.06.02.13.01.19.1.02.2.03.3.04.09.09.19.19.28.28h0c.06.19.14.34.36.27-.02.03-.04.06-.03.09.02.08.06.16.09.24h0c-.01.1-.02.2-.01.3.07.02.15.04.22.06,0,.04,0,.09.02.13.08.05.16.08.24.11.03.08.05.16.08.23.26.03.52.05.78.08.07-.05.11-.11.14-.19.23.02.46.03.6-.23,0-.11.03-.19.13-.25.26-.31.07-.8.42-1.08-.03-.11-.02-.21.03-.31-.29-.32.09-.78-.22-1.1,0-.02,0-.04,0-.06.58.27.48-.52.8-.66h0c.34-.58.4-1.2.2-1.84-.09-.08-.09-.17-.01-.26Z"/>
      <polygon class="cls-2" points="99.02 48.57 99.02 48.57 99.02 48.57 99.02 48.57"/>
      <path class="cls-2" d="m100.77,43.43c.09-.73.22-1.46.12-2.2.05-.07.09-.13.14-.2-.02-.13-.04-.25-.05-.38-.18-.23-.08-.56-.29-.77-.07-.16-.2-.29-.31-.44-.12-.15-.24-.29-.4-.39-.11-.01-.23,0-.34.02l.07-.11c-.25-.19-.57-.24-.84-.38-.16.09-.31.08-.45-.04-.22,0-.38.14-.56.23l.05.12c-.08-.04-.16-.06-.25-.07-.24.01-.42.12-.52.34-.26.1-.23.47-.5.55l-.04.05c-.07.15-.23.24-.32.38-.14.09-.19.22-.15.37-.15.06-.21.23-.31.35,0,.12,0,.23,0,.35l-.11-.06c-.09.18-.28.3-.31.52.03.1,0,.17-.1.2-.21.22-.2.54-.4.77.03.12,0,.22-.11.3-.18.24-.2.55-.37.79.04.11,0,.2-.1.27-.31.3-.1.81-.45,1.09.03.13,0,.24-.1.33-.17.25-.22.56-.36.83-.05.2-.11.4-.16.6-.17.22-.2.46-.09.72,0,.23,0,.46.01.69.07.13.16.19.27.19,0,.15.01.3.02.45-.02.03-.05.05-.07.08-.11.15-.12.31-.05.48.08.11.09.22.03.34.17.25.08.58.27.82h0c.11.12.2.26.26.42l.03.06c.27.12.13.52.42.63.37.5.88.34,1.38.27l.05-.02c.09-.14.21-.23.37-.29l.04-.04c.11-.13.22-.25.35-.36h0c.16-.1.31-.23.4-.41-.01-.11.03-.2.12-.27.18-.19.12-.52.4-.65l-.03-.15c.09.04.18.07.27.09.16-.03.21-.13.17-.27.03.04.06.08.09.12.08-.05.16-.1.25-.15h-.02c.19-.11.36-.25.4-.49,0-.11.04-.17.14-.18l.1-.16s-.08-.09-.1-.12c.1.05.21.04.33-.05.24-.18.21-.53.44-.71l.14-.35c.08-.13.18-.25.3-.35h0c.25-.14.21-.51.47-.66h0c.32-.33.15-.84.45-1.17.06-.56.12-1.12.18-1.67-.05-.12-.14-.19-.23-.24Zm-2.99,5.62s-.03-.02-.04-.03c.02,0,.03,0,.05-.01v.04Zm-1.23-8.08s0,0,0,0c0,0,0,0,0,0h0Zm2.65-1.61s0,.02,0,.02c0,0,0,0-.01-.01h.02Z"/>
      <polygon class="cls-2" points="52.12 70.19 52.12 70.19 52.11 70.19 52.12 70.19"/>
      <path class="cls-2" d="m34.08,73.22s0,0,0,0c0,0-.01.01-.02.02l.02-.02Z"/>
      <path class="cls-2" d="m3,26.61c-.01.24-.02.47-.03.71.03.09.09.14.16.17-.02.22-.03.43.04.65.02.01.04.02.06.03-.29.32-.3.67-.12,1.05.09.08.1.17.02.26.1.28.06.6.2.87.1.04.12.11.07.2,0,.25.11.42.3.57.06.12.14.15.25.1,0,.13.04.23.19.29.1-.03.18,0,.22.1.35.24.71.3,1.1.09h0c.32-.15.56-.4.82-.62l.02-.02c.09-.14.24-.23.33-.37.17-.08.33-.19.38-.38.19.01.3-.13.46-.2.07-.09.16-.11.26-.06.22-.03.38-.15.52-.31l-.03.02c.27-.14.23-.51.49-.66h0c.21-.19.16-.54.44-.67l.02-.03s.05-.04.07-.12c.01-.04.01-.08,0-.12.12-.03.21-.11.26-.25-.05-.11-.02-.18.09-.22.33-.3.13-.82.46-1.12-.05-.13-.02-.23.09-.31.28-.35.17-.84.42-1.21.03-.27.06-.53.08-.8-.15-.42.04-.87-.14-1.28,0-.19-.02-.39-.03-.58-.17-.42.1-.9-.21-1.3v.02c-.15-.24-.06-.57-.29-.78-.07-.16-.19-.29-.3-.42-.11-.14-.22-.28-.33-.41h0c-.13-.17-.27-.34-.5-.38-.17.1-.32.06-.46-.07-.88.36-1.81-.4-2.69.12l.05-.03c-.19.04-.32.17-.45.3-.15.1-.29.2-.38.36-.11.06-.18.15-.23.26-.08,0-.14.04-.19.16.02.11-.03.19-.13.23-.03,0-.06.04-.08.13-.02.06,0,.11.05.16-.03.03-.05.06-.08.09-.04.11-.09.22-.14.33-.03,0-.06.02-.09.03-.01.1-.02.21-.03.31-.04.14-.08.28-.12.42-.09.23-.21.45-.23.7-.02.21-.05.42-.07.63-.07.03-.13.08-.17.16-.06.33-.12.66-.19.99-.29.71-.38,1.44-.23,2.19Z"/>
      <polygon class="cls-2" points="100.38 39.44 100.38 39.44 100.38 39.44 100.38 39.44"/>
      <path class="cls-2" d="m47.13,13.35c0-.12-.06-.17-.15-.2,0-.12-.02-.23-.07-.35,0,0-.01,0-.02-.01.12-.07.14-.18.06-.32-.08-.1-.09-.21-.04-.33-.03-.1-.09-.15-.17-.17,0-.06,0-.12,0-.18-.04-.12-.1-.24-.17-.35,0-.03,0-.06.01-.08-.03,0-.05-.03-.08-.04,0-.01-.02-.03-.02-.04-.04-.12-.07-.25-.1-.37l-.14.02h0c.02-.1.05-.21.07-.31-.05-.03-.1-.06-.15-.1,0-.11,0-.22-.01-.34-.05-.11-.11-.2-.17-.31,0-.02,0-.03,0-.05-.01,0-.03-.01-.04-.02-.02-.04-.05-.08-.06-.12-.03-.12-.08-.22-.17-.3-.08-.16-.2-.29-.32-.43h0c-.11-.13-.2-.27-.29-.42v-.03c-.25-.17-.13-.53-.39-.68-.11-.31-.49-.27-.66-.5-.33-.03-.66-.06-.99-.09-.27.15-.7.02-.82.45.02.1-.03.16-.13.17-.11.13-.21.25-.32.37l.02-.03c-.41.31-.25.85-.5,1.23.05.45-.07.87-.23,1.29-.33.95-.43,1.92-.32,2.92,0,.22,0,.43,0,.65.26.51-.13,1.08.13,1.59.07.11.07.23,0,.35.28.35-.03.8.19,1.16,0,.2.02.39.03.59.07.31.05.63.19.92l.09.08-.03.11c0,.29.13.47.4.56.11-.03.18,0,.23.11.24.19.48.23.72,0l-.03.02c.17-.07.3-.2.44-.31h0c.14-.11.29-.2.37-.37.27-.12.23-.49.49-.62h0c.11-.13.24-.23.38-.31.08-.1.18-.11.28-.05.59-.11.97-.5,1.3-.96h0c.27-.18.26-.52.44-.76-.03-.12,0-.22.11-.28.15-.2.18-.43.2-.67.08-.03.13-.08.16-.18.06-.31.13-.63.19-.95.11-.11.12-.23.04-.36,0-.21,0-.42-.01-.63Z"/>
      <path class="cls-2" d="m56.93,61.7c.04-.33.1-.67,0-1-.04-.03-.07-.06-.11-.08,0-.04,0-.08,0-.12,0,0,0,0,0,0,.04-.05.09-.09.13-.14-.01-.13-.02-.25-.03-.38-.19-.23-.09-.56-.26-.8h0c-.18-.3-.39-.57-.61-.83l-.03-.03c-.13-.1-.25-.22-.36-.36h0c-.09-.13-.2-.15-.31-.07-.11-.15-.25-.26-.39-.38h0c-.79-.69-.95.54-1.53.51-.12.01-.24.02-.36.03-.23.19-.57.08-.79.28h0c-.33.13-.57.38-.83.61v.02c-.31.33-.15.83-.45,1.15.03.12,0,.22-.1.29-.35.44-.09,1.07-.46,1.51-.1.92-.2,1.84-.3,2.76.32.64-.23,1.35.13,1.99-.15.06-.18.17-.09.33,0,.21,0,.43.01.64.19.39-.02.83.13,1.23,0,.12.02.25.03.37.21.21.06.6.4.74v-.02c.1.01.19.03.28.03.31.34.7.2,1.07.19.13-.11.27-.2.42-.27l.04-.03c.1-.14.22-.24.36-.33h.01c.21-.21.19-.55.43-.73.05-.12.1-.24.15-.35.05-.13.15-.2.28-.24.36,0,.71,0,1.07,0,.11-.05.16-.13.15-.22.12-.02.22-.08.28-.2-.02-.12.03-.2.14-.25.1-.15.26-.26.31-.45-.03-.11,0-.19.1-.25.22-.23.19-.54.24-.83,0-.05.02-.1.02-.15.06-.03.13-.06.19-.09-.01-.13-.03-.26-.04-.38l.12.04c.27-.43.21-.93.29-1.4.07-.03.13-.08.17-.17.08-.67.16-1.34.24-2.01-.02-.1-.07-.15-.15-.18Z"/>
    </g>
    <g>
      <path class="cls-1" d="m74.38,113.11c3.44-2.74,5.92-5.72,8.93-8.94,2.87-3.08,5.7-6.07,8.59-9.16,3.7-3.97,7.99-7.1,12.22-10.47,1.68-1.34,3.31-2.66,4.79-4.24,2.38-2.53,4.6-5.31,7.04-7.7l.56-.54c.44-.44.94-.81,1.47-1.2.96-.71,1.95-1.45,2.6-2.57.14-.23.11-.53-.07-.72-.19-.17-.46-.26-.71-.15-4.91,2.21-9.44,4.6-14.22,7.13l-2.96,1.57c-5.26,2.76-9.72,7.06-14.02,11.22-1.02.98-2.02,1.95-3.03,2.89-4.1,3.82-7.47,8.66-10.72,13.35-1.45,2.09-2.96,4.25-4.48,6.24-1.95,2.55-3.8,5.17-5.66,7.78-.87,1.22-1.77,2.46-2.83,3.53-.67.67-1.42,1.41-2.1,2.22l5.42-.17c.66-.7,1.26-1.46,1.97-2.1,2.05-1.86,3.9-3.71,5.51-5.97.52-.74,1.02-1.43,1.7-1.99"/>
      <path class="cls-1" d="m142.6,55.81c1.98.68,4.07.66,6.02-.13,3.01-1.23,6.13-6.73,3.92-9.63-1.17-1.53-2.04-3.31-4.1-3.81-2.13-.51-4.72.08-6.79.66-.07.02-.11.05-.17.07-.27.06-.51.16-.7.29-1.49,1.06-2.41,2.63-3.59,4.02-1.32,1.54-.65,3.2.28,4.71.96,1.56,3.4,3.22,5.13,3.81"/>
      <path class="cls-1" d="m144.56,60.27c-.19.07-.35.17-.45.26-.16.11-.26.22-.32.34-2.49,2.55-3.21,6.1-.48,8.85,2.68,2.72,6.57,1.81,9.14-.41,2.52-2.19,3.91-5.38,1.26-8.1-2.58-2.66-6.13-2.69-9.15-.93"/>
      <path class="cls-1" d="m127.51,59.43c-.48,3.06.66,6.19,3.78,7.2,1.53.5,3.17.22,4.62-.36,1.58-.62,2.19-1.94,2.76-3.43.89-2.98-1.51-5.72-4.32-6.4-2.46-.59-6.38.03-6.85,2.99"/>
      <path class="cls-1" d="m78.29,85c-1.52,1.87-3.02,3.76-4.48,5.68-1.46,1.91-2.89,3.84-4.31,5.78-1.42,1.93-2.81,3.88-4.2,5.84l-2.08,2.92c-.7.97-1.4,1.95-2.09,2.93-1.38,1.97-2.74,3.98-3.98,6.06-.62,1.05-1.21,2.11-1.76,3.2-.55,1.09-1.07,2.19-1.52,3.32-.18.46-.31.94-.48,1.4,1.1-.02,2.2,0,3.3-.04.12-.26.22-.54.34-.8.52-1.05,1.07-2.1,1.65-3.12.59-1.02,1.22-2.01,1.88-2.99,2.61-3.95,4.61-7.64,7.5-11.49,5.78-7.64,10.66-15.28,17.01-22.34,1.59-1.76,3.2-3.51,4.86-5.21,1.65-1.7,3.34-3.36,5.09-4.94,1.75-1.59,3.56-3.09,5.44-4.52.94-.71,1.89-1.4,2.86-2.07.97-.66,1.96-1.31,2.96-1.92.51-.31,1.02-.6,1.52-.91.52-.3,1.04-.61,1.56-.92l3.07-1.86c2.03-1.22,4.09-2.37,6.24-3.24.54-.23,1.08-.43,1.63-.6.55-.17,1.1-.33,1.67-.46,1.13-.26,2.29-.43,3.46-.55,1.38-.15,2.82-.29,4.21-.17.86.08,2.24.09,2.83-.73,1.32-1.8-2.29-1.63-2.93-1.63-1.68,0-3.35-.02-5.01.15-3.12.33-6.42,1.37-9.29,2.56-1.89.78-3.74,1.61-5.64,2.38-1.52.61-3.06,1.38-4.37,2.34-2.88,2.11-5.94,3.93-8.24,6.69-1.21,1.45-2.74,2.59-4.15,3.84-1.68,1.49-3.3,3.05-4.87,4.65-1.7,1.72-3.35,3.49-4.97,5.28-1.61,1.8-3.19,3.64-4.72,5.5"/>
      <path class="cls-1" d="m169.01,53.94c-2.53-3.38-5.98-2.46-9.51-1.65-4.13.96-4.87,5.31-3,8.69,4.06,7.32,16.69.3,12.51-7.04"/>
      <path class="cls-1" d="m177.23,72.16c1.7-1.07,2.09-2.37,3.2-3.92.94-1.32,1.01-2.74.5-4.25-3.19-6.57-12.06-.01-10.53,5.72.79,2.95,4.35,4,6.82,2.46"/>
      <path class="cls-1" d="m166.05,66.95c-1.58-.8-3.27-.91-4.99-.66-3.22.49-5.72,3.05-5.53,6.42.18,3.1,4.49,5,7.2,4.52,1.68-.3,3.39-.86,4.61-2.13,1.36-1.4,1.42-2.82,1.06-4.66-.35-1.64-.81-2.72-2.35-3.5"/>
      <path class="cls-1" d="m176.27,75.51c-1.07-.55-2.85-.17-3.88.26-2.32.97-3.86,2.85-2.97,5.43.9,2.58,3.23,2.87,5.53,2.03,1.87-.69,4.23-3.65,3.1-5.65-.4-.93-.88-1.61-1.79-2.07"/>
      <path class="cls-1" d="m188.13,81.43c-2.49-3.47-11.44-.86-8.69,3.75,1.29,2.16,4.01,2.27,6.17,1.45,1.11-.42,2.04-1.06,2.74-2.02.73-1,.32-2.23-.22-3.17"/>
      <path class="cls-1" d="m161.26,106.06c-.64,1.26-.42,3.67.05,4.97,1.5,4.14,5.76,4.26,9.45,3.35,1.4-.35,3.28-1,3.84-2.49.58-1.59.34-3.61-.43-5.07-.02-.04-.07-.07-.1-.1-.02-.05,0-.09-.03-.13-.84-1.41-1.59-2.58-3.22-3.12-1.79-.59-3.66-.76-5.46-.12-1.52.55-3.31,1.18-4.09,2.71"/>
      <path class="cls-1" d="m156.96,94.19c-1.71-.18-3.57.16-5.1.94-1.37.7-2.48,1.58-3.28,2.89-.65,1.05-2.36,3.56-1.4,4.76,2.23,2.77,5.28,4.41,8.82,3.06,3.6-1.38,5.97-5.23,4.29-8.95-.79-1.18-1.8-2.55-3.33-2.71"/>
      <path class="cls-1" d="m144.35,106.02c-3.55-5.16-12.78-.66-10.77,5.32,2.27,6.72,13.56.62,10.77-5.32"/>
      <path class="cls-1" d="m160.57,129.47c-2.08,1.68-3.49,4.66-2.34,7.3,1.16,2.65,5.47,2.97,7.71,1.75.05-.03.07-.06.12-.09.21-.12.41-.26.59-.41,2.1-1.85,2.66-5.35,1.29-7.81-1.56-2.8-5.09-2.57-7.37-.74"/>
      <path class="cls-1" d="m175.92,120.02s0-.01,0-.02c-.02-.03-.04-.04-.05-.07-.02-.01-.02-.04-.05-.06-1.6-2.13-4.62-3.06-7.13-2.15-1.21.43-2.34,1.15-2.54,2.51-.19,1.26.61,2.77,1.14,3.87.52,1.11.65,2.57,1.98,3.07,1.3.49,2.64.35,3.9-.18,1.25-.53,1.86-1.61,2.49-2.74.79-1.41.63-2.59.38-4.08-.01-.07-.07-.11-.11-.16"/>
      <path class="cls-1" d="m162,124.79c1.44-.96,1.89-3.94.03-4.66-1.74-1.65-4.26-1.38-6.15-.06-1.69,1.18-1.35,3.43-.05,4.71,1.72,1.7,4.34,1.24,6.18,0"/>
      <path class="cls-1" d="m156.41,115.19c.82-1.79.14-2.43-1.25-3.56-2.36-1.79-5.86-1.59-8.23.06-2.56,1.79-3.12,4.99-1.11,7.38,1.92,2.3,6.04,1.12,8.15-.27,1.32-.87,1.82-2.25,2.45-3.62"/>
      <path class="cls-1" d="m125.51,99.49c-1.41-.26-2.82-.57-4.27-.65-1.53-.08-2.95-.02-4.46.14-1.66.18-3.33.56-4.98.83-3.25.53-6.42,1.43-9.49,2.58-1.53.58-3.05,1.23-4.52,1.93-1.48.7-2.93,1.47-4.35,2.26-2.84,1.58-5.63,3.27-8.33,5.07-1.35.9-2.69,1.82-4.01,2.77-.66.48-1.31.96-1.96,1.46-.31.23-.65.5-.96.75-.33.26-.64.52-.96.8-2.51,2.17-4.65,4.68-6.61,7.27-.37.51-.72,1.02-1.08,1.52.89-.03,1.78-.04,2.67-.07,1.91-2.27,3.94-4.43,6.2-6.29.3-.25.61-.49.92-.73.31-.24.62-.46.95-.7.66-.47,1.31-.94,1.96-1.4,1.31-.91,2.65-1.81,3.99-2.67,2.7-1.73,5.44-3.38,8.23-4.95.7-.39,1.4-.78,2.1-1.15.7-.36,1.41-.73,2.12-1.07,1.43-.69,2.88-1.34,4.35-1.92,2.94-1.18,5.99-1.75,9.09-2.4,1.55-.32,3.12-.55,4.69-.71,1.58-.16,3.16-.59,4.76-.57,1.95.03,3.86.31,5.76.72.98.21,3.41,1.27,4.02-.22.75-1.83-4.73-2.42-5.84-2.64"/>
      <path class="cls-1" d="m137.01,100.12c1.66.46,4.44-.25,5.98-.9,1.43-.6,3.06-2.03,3.64-3.49.9-2.32.57-4.08-.85-6.07-2.69-2.5-6.75-3.4-10.01-1.58-3.22,1.8-4.82,5.47-2.52,8.77,1.05,1.48,1.98,2.77,3.76,3.28"/>
    </g>
  </g>
</svg>