<?xml version="1.0" encoding="UTF-8"?>
<svg id="_レイヤー_2" data-name="レイヤー 2" xmlns="http://www.w3.org/2000/svg" viewBox="0 0 36 34.76">
  <defs>
    <style>
      .cls-1 {
        fill: #fff;
      }

      .cls-2 {
        fill: none;
        opacity: .8;
        stroke: #90b987;
        stroke-miterlimit: 10;
        stroke-width: .25px;
      }

      .cls-3 {
        fill: #10502d;
      }
    </style>
  </defs>
  <g id="_レイヤー_1-2" data-name="レイヤー 1">
    <ellipse class="cls-3" cx="18" cy="17.38" rx="18" ry="17.38"/>
    <path class="cls-2" d="m.94,15.98C1.63,8.09,8.1,1.77,16.25.97"/>
    <path class="cls-2" d="m16.26,33.79c-8.05-.79-14.47-6.97-15.29-14.73"/>
    <path class="cls-2" d="m35.03,19.06c-.82,7.76-7.24,13.94-15.29,14.73"/>
    <path class="cls-2" d="m19.75.97c7.99.78,14.38,6.89,15.27,14.57"/>
    <g>
      <path class="cls-1" d="m6.17,16.63c.2.09.52.16.9.2.03-.25.08-.64.12-.9-.24-.03-.45-.06-.75-.14-.06-.02-.08-.02-.15-.03l.04-.33c.21.09.55.17.9.2.08-.48.12-.81.12-.94v-.04l.4.04c-.03.1-.04.16-.08.34t-.05.32c-.02.11-.03.16-.05.3.14,0,.21,0,.29,0,.38,0,.69-.03.92-.08l-.02.35q-.1.01-.35.03c-.16.02-.31.02-.45.02-.08,0-.17,0-.44-.01-.08.58-.08.63-.11.91.19,0,.26,0,.33,0,.36,0,.73-.03.92-.08v.34c-.06,0-.08,0-.15.01-.25.03-.47.04-.71.04-.13,0-.21,0-.43-.01t0,.1c-.01.12-.02.29-.02.37,0,.27.08.47.23.6.16.14.4.22.71.22.67,0,1.11-.35,1.11-.88,0-.32-.16-.6-.48-.87.17-.02.22-.04.37-.1.36.39.47.63.47,1,0,.71-.59,1.18-1.47,1.18-.53,0-.93-.18-1.12-.5-.1-.17-.16-.41-.16-.69,0-.1,0-.21.02-.33q0-.08,0-.12c-.3-.03-.53-.07-.75-.12-.08-.03-.1-.03-.16-.03l.04-.35Z"/>
      <path class="cls-1" d="m11.32,16.62c.13,0,.15-.01.46-.09.66-.16,1.1-.22,1.53-.22.52,0,.87.16,1.06.47.1.16.15.37.15.57,0,.56-.45,1.07-1.15,1.29-.31.1-.43.12-1.03.19-.03-.14-.05-.19-.13-.35.03,0,.05,0,.07,0,.31,0,.7-.06.99-.16.57-.19.92-.57.92-1.01s-.32-.7-.93-.7c-.33,0-.72.06-1.32.2-.31.07-.39.1-.54.17l-.09-.37Z"/>
      <path class="cls-1" d="m17.45,14.64c.02.34.21,1.16.38,1.66.29-.12.44-.18,1.21-.45.18-.06.22-.08.32-.13l.15.38c-.35.08-1.07.31-1.51.49-.86.34-1.23.67-1.23,1.09,0,.46.38.63,1.37.63.58,0,1.14-.06,1.43-.17l.04.42q-.1,0-.37.03c-.52.05-.76.06-1.11.06-.5,0-.87-.04-1.11-.14-.41-.15-.62-.43-.62-.82,0-.32.15-.61.45-.85.19-.16.34-.25.66-.41-.14-.41-.24-.76-.37-1.4-.04-.21-.05-.24-.08-.32l.4-.08Z"/>
      <path class="cls-1" d="m21.99,17.56c-.28,0-.41,0-.57.01.02-.15.03-.29.03-.53v-1.7c0-.29-.01-.56-.03-.67.17.02.32.03.54.03h2.09c.21,0,.39-.01.54-.03-.01.11-.03.39-.03.67v1.7c0,.24,0,.38.03.53-.14,0-.29-.01-.56-.01h-.44v.91c0,.16.05.17.56.17.48,0,.59-.02.66-.13.05-.08.09-.27.12-.66.14.08.21.11.31.14-.11.9-.17.94-1.12.94-.41,0-.63-.02-.74-.08-.09-.06-.12-.12-.12-.28v-1.01h-.61c-.07.42-.19.67-.44.91-.29.29-.66.46-1.28.59-.05-.13-.09-.2-.18-.3.38-.07.56-.12.77-.21.34-.15.58-.37.7-.65.04-.1.05-.14.09-.35h-.33Zm-.23-2.01h2.49v-.55h-2.49v.55Zm0,.86h2.49v-.58h-2.49v.58Zm0,.88h2.49v-.6h-2.49v.6Z"/>
      <path class="cls-1" d="m26.69,14.92c.14.02.23.03.47.03.42,0,1.08-.03,1.53-.06.13,0,.17-.02.24-.06l.21.28c-.07.04-.1.06-.26.21-.69.68-1.3,1.2-1.65,1.42v.02c.39-.21.8-.31,1.24-.31.84,0,1.37.41,1.37,1.05,0,.78-.73,1.3-1.84,1.3-.71,0-1.11-.26-1.11-.72,0-.34.31-.59.73-.59.33,0,.63.15.83.41.1.14.16.26.23.48.53-.15.8-.45.8-.88,0-.48-.4-.77-1.08-.77-.74,0-1.53.32-2.11.86l-.23-.32c.18-.1.36-.24.7-.51.54-.43,1.33-1.12,1.67-1.46t.07-.07s.01-.01.02-.02l.02-.02h0s-.01-.01-.04,0c-.16.03-.76.06-1.52.09-.11,0-.16.01-.27.02l-.02-.38Zm.94,2.85c-.25,0-.41.12-.41.31,0,.13.07.23.2.31.13.07.35.11.56.11.12,0,.19,0,.37-.03-.11-.46-.36-.7-.72-.7Z"/>
    </g>
  </g>
</svg>