<?xml version="1.0" encoding="UTF-8"?>
<svg id="_レイヤー_2" data-name="レイヤー 2" xmlns="http://www.w3.org/2000/svg" viewBox="0 0 138 38">
  <defs>
    <style>
      .cls-1 {
        fill: #fff;
      }

      .cls-2 {
        fill: #02542d;
        stroke: #02542d;
        stroke-width: .09px;
      }

      .cls-2, .cls-3 {
        stroke-miterlimit: 10;
      }

      .cls-3 {
        fill: none;
        opacity: .8;
        stroke: #05522f;
        stroke-width: .5px;
      }
    </style>
  </defs>
  <g id="_文字_スライド_アイコン" data-name="文字　スライド　アイコン">
    <g>
      <rect class="cls-1" y="0" width="138" height="38" rx="19" ry="19"/>
      <path class="cls-3" d="m36.49,3h82.51c8.82,0,16,7.18,16,16s-7.18,16-16,16h-18.51"/>
      <path class="cls-3" d="m95.38,35H19c-8.82,0-16-7.18-16-16S10.18,3,19,3h12.7"/>
      <g>
        <path class="cls-2" d="m35.42,20.01c-.11,1.06-.16,1.7-.16,1.9,0,.84.24,1.44.72,1.78.39.28.98.41,1.76.41.99,0,1.78-.23,2.37-.69.56-.44.84-1.03.84-1.77,0-.5-.11-.97-.33-1.4-.23-.45-.61-.94-1.14-1.47.09,0,.17,0,.24,0,.14,0,.38-.02.74-.07.05,0,.08,0,.11,0,.06,0,.12.02.16.05.89.87,1.33,1.84,1.33,2.9,0,1.12-.45,2.01-1.35,2.66-.76.54-1.69.81-2.79.81-2.44,0-3.66-1.07-3.66-3.2,0-.2.05-.86.16-1.98-.98-.12-1.83-.28-2.54-.49-.08-.02-.13-.09-.15-.21-.02-.16-.02-.33-.02-.52,0-.11,0-.24,0-.37.81.29,1.75.49,2.84.6.16-1.12.28-2.02.37-2.68-1.17-.12-2.07-.29-2.72-.51-.08-.03-.13-.1-.15-.21-.02-.32-.03-.62-.03-.9.78.28,1.8.49,3.07.62.11-.71.19-1.36.25-1.94.04-.27.05-.53.05-.77,0-.2-.02-.4-.05-.59.45.08.87.21,1.25.38.16.07.24.16.24.26,0,.06-.04.13-.11.23-.13.14-.23.39-.29.75-.12.66-.22,1.24-.29,1.76.28.02.57.03.87.03.46,0,.92-.02,1.38-.06.06,0,.09.04.09.12,0,.34,0,.59-.02.74,0,.1-.05.16-.16.16-.4.03-.83.04-1.31.04-.37,0-.71,0-1.02-.02-.08.53-.22,1.42-.41,2.67.47.02.88.02,1.22.02.5,0,.96-.02,1.37-.06h.06c.09,0,.13.04.13.12,0,.21-.01.45-.03.7-.02.11-.07.17-.15.17-.39.03-.83.05-1.34.05-.4,0-.86,0-1.39-.02Z"/>
        <path class="cls-2" d="m47.77,18.63c.52-.07,1.33-.27,2.45-.61,1.99-.61,3.43-.91,4.32-.91,1.07,0,1.91.32,2.52.96.54.56.8,1.28.8,2.16,0,.81-.2,1.5-.59,2.05-.34.47-.85.9-1.52,1.27-.92.5-2.02.85-3.31,1.07-.04,0-.07,0-.09,0-.09,0-.16-.06-.23-.17-.12-.23-.32-.46-.61-.67,1.49-.2,2.71-.55,3.66-1.05,1.07-.56,1.6-1.41,1.6-2.56,0-.74-.25-1.29-.73-1.66-.41-.31-.95-.46-1.63-.46-1.05,0-2.62.43-4.72,1.28-.26.1-.51.24-.75.41-.17.09-.27.14-.3.14-.09,0-.19-.06-.29-.18-.16-.2-.35-.55-.58-1.05Z"/>
        <path class="cls-2" d="m66.28,11.98c.55.02.98.07,1.3.15.13.03.2.1.2.2,0,.05-.01.12-.04.23-.03.12-.04.23-.04.33.02.32.05.66.09,1.02.16,1.35.36,2.48.62,3.39,1.5-.74,2.46-1.22,2.85-1.44.42-.24.73-.49.93-.74.35.34.62.64.81.9.05.07.07.14.07.21,0,.14-.09.22-.27.24-.31.05-.78.22-1.41.51-1.59.75-2.8,1.35-3.63,1.83-.88.51-1.5,1-1.87,1.48-.33.43-.5.91-.5,1.42,0,.72.37,1.21,1.11,1.47.56.2,1.45.29,2.65.29,1.33-.02,2.71-.13,4.12-.34.02,0,.04,0,.05,0,.09,0,.14.05.16.15.05.25.08.52.1.84v.04c0,.11-.08.17-.23.18-1.36.15-2.78.23-4.26.23-1.62,0-2.82-.22-3.59-.66-.79-.46-1.18-1.17-1.18-2.14,0-.79.3-1.53.91-2.22.49-.56,1.23-1.14,2.21-1.73-.38-1.29-.66-2.7-.84-4.25-.09-.69-.21-1.21-.35-1.57Z"/>
        <path class="cls-2" d="m91.88,23.3c-.06.53-.15.92-.27,1.16-.09.2-.25.38-.45.52-.36.29-1.17.43-2.41.43-1.03,0-1.75-.05-2.16-.16-.47-.15-.7-.49-.7-1.01v-3.36h-1.91c-.16,1.53-.71,2.7-1.64,3.53-.82.73-1.91,1.17-3.28,1.31-.08.01-.14.02-.18.02-.11,0-.21-.09-.3-.27-.14-.27-.3-.46-.49-.59,3.04-.13,4.67-1.46,4.88-4h-.19l-2.18.03c-.08,0-.12-.04-.12-.12l.03-1.98v-4.55l-.03-1.98c0-.08.04-.12.12-.12l2.2.03h4.45l2.2-.03c.08,0,.12.04.12.12l-.03,1.98v4.55l.03,1.98c0,.08-.04.12-.12.12l-2.2-.03h-.38v2.91c0,.35.14.55.43.62.21.05.72.08,1.52.08.91,0,1.48-.09,1.7-.26.18-.12.3-.33.38-.64.05-.25.09-.61.1-1.09.17.14.39.26.66.38.18.07.27.16.27.27,0,.03,0,.08-.02.15Zm-3.33-8.52v-1.73h-7.1v1.73h7.1Zm0,2.56v-1.73h-7.1v1.73h7.1Zm0,2.67v-1.84h-7.1v1.84h7.1Z"/>
        <path class="cls-2" d="m102.31,13.57c-.87.14-2.2.38-4,.72-.21.04-.4.09-.56.15-.12.05-.22.08-.3.08-.11,0-.2-.07-.26-.2-.15-.29-.27-.65-.38-1.1.27.04.53.05.79.05.21,0,.41-.01.62-.03,1.41-.15,2.73-.34,3.98-.58.22-.04.39-.09.49-.15.1-.07.17-.11.23-.11.08,0,.17.04.29.12.3.24.53.46.69.67.07.09.11.18.11.27,0,.14-.08.24-.24.3-.2.06-.45.25-.75.56-1.44,1.52-2.8,2.93-4.09,4.25l.05.05c1.16-.77,2.31-1.15,3.45-1.15,1.22,0,2.17.37,2.85,1.12.58.62.88,1.43.88,2.41,0,1.31-.52,2.34-1.55,3.09-.94.68-2.18,1.02-3.73,1.02-.97,0-1.71-.21-2.2-.63-.39-.33-.59-.75-.59-1.26,0-.47.19-.86.58-1.19.35-.3.79-.45,1.3-.45.75,0,1.38.24,1.88.72.42.4.7.95.84,1.63,1.56-.55,2.34-1.54,2.34-2.97,0-.85-.3-1.52-.91-2.02-.51-.41-1.13-.61-1.86-.61-1.44,0-2.9.6-4.4,1.8-.29.23-.76.66-1.41,1.3-.07.07-.14.11-.19.11-.04,0-.09-.03-.13-.08-.29-.29-.49-.5-.59-.63-.03-.03-.04-.06-.04-.09,0-.04.03-.09.1-.15,1.05-.91,2.25-2.1,3.62-3.57,1.38-1.5,2.42-2.66,3.12-3.48Zm-.62,10.61c-.11-.56-.33-.99-.65-1.29-.3-.28-.66-.42-1.06-.42-.29,0-.53.07-.72.22-.17.14-.26.31-.26.53,0,.31.16.57.48.78.3.17.69.26,1.17.26.39,0,.73-.03,1.04-.08Z"/>
      </g>
    </g>
  </g>
</svg>