<?xml version="1.0" encoding="UTF-8"?>
<svg id="_レイヤー_2" data-name="レイヤー 2" xmlns="http://www.w3.org/2000/svg" viewBox="0 0 201.36 222.92">
  <defs>
    <style>
      .cls-1 {
        fill: #fff;
      }

      .cls-2 {
        fill: #f7f4e1;
      }
    </style>
  </defs>
  <g id="_レイヤー_2-2" data-name=" レイヤー 2">
    <path class="cls-2" d="m192.29,0c-.31,0-.57.27-.57.6v33.9c0,.32.26.59.57.59h4.83c.31,0,.57-.27.57-.59V.6c0-.33-.25-.6-.57-.6,0,0-4.83,0-4.83,0Z"/>
    <path class="cls-2" d="m182.06,0c-.31,0-.57.27-.57.6v33.9c0,.32.26.59.57.59h4.83c.32,0,.57-.27.57-.59V.6c0-.33-.25-.6-.57-.6,0,0-4.83,0-4.83,0Z"/>
    <path class="cls-2" d="m171.83,0c-.31,0-.57.27-.57.6v33.9c0,.32.25.59.57.59h4.83c.32,0,.57-.27.57-.59V.6c0-.33-.25-.6-.57-.6,0,0-4.83,0-4.83,0Z"/>
    <path class="cls-2" d="m134.66,10.01h32.6c.31,0,.57-.26.57-.59v-5.02c0-.32-.25-.59-.57-.59h-32.6c-.32,0-.57.27-.57.59v5.02c0,.33.25.59.57.59"/>
    <path class="cls-2" d="m134.66,20.65h32.6c.31,0,.57-.26.57-.59v-5.03c0-.33-.25-.59-.57-.59h-32.6c-.32,0-.57.26-.57.59v5.03c0,.33.25.59.57.59"/>
    <path class="cls-2" d="m134.66,31.3h32.6c.31,0,.57-.26.57-.59v-5.02c0-.33-.25-.59-.57-.59h-32.6c-.32,0-.57.26-.57.59v5.02c0,.33.25.59.57.59"/>
    <path class="cls-2" d="m201.36,41.96c0-.32-.26-.59-.57-.59h-32.6c-.32,0-.57.27-.57.59v5.03c0,.33.26.59.57.59h32.6c.32,0,.57-.26.57-.59v-5.03h0Z"/>
    <path class="cls-2" d="m200.78,52.01h-32.6c-.32,0-.57.26-.57.59v5.03c0,.33.26.59.57.59h32.6c.32,0,.57-.26.57-.59v-5.03c0-.32-.26-.59-.57-.59"/>
    <path class="cls-2" d="m201.36,68.27v-5.03c0-.33-.26-.59-.57-.59h-32.6c-.32,0-.57.26-.57.59v5.03c0,.33.26.59.57.59h32.6c.32,0,.57-.27.57-.59"/>
    <path class="cls-2" d="m158.78,37.57c-.32,0-.57.27-.57.6v33.9c0,.32.25.59.57.59h4.83c.32,0,.57-.27.57-.59v-33.9c0-.33-.25-.6-.57-.6h-4.83Z"/>
    <path class="cls-2" d="m148.55,37.57c-.31,0-.57.27-.57.6v33.9c0,.32.25.59.57.59h4.83c.32,0,.57-.27.57-.59v-33.9c0-.33-.25-.6-.57-.6h-4.83Z"/>
    <path class="cls-2" d="m138.32,37.57c-.32,0-.57.27-.57.6v33.9c0,.32.25.59.57.59h4.83c.32,0,.57-.27.57-.59v-33.9c0-.33-.25-.6-.57-.6h-4.83Z"/>
    <path class="cls-2" d="m197.13,75.13h-4.83c-.31,0-.57.27-.57.6v33.9c0,.33.26.59.57.59h4.83c.31,0,.57-.26.57-.59v-33.9c0-.33-.25-.6-.57-.6"/>
    <path class="cls-2" d="m186.89,75.13h-4.83c-.31,0-.57.27-.57.6v33.9c0,.33.26.59.57.59h4.83c.32,0,.57-.26.57-.59v-33.9c0-.33-.25-.6-.57-.6"/>
    <path class="cls-2" d="m176.66,75.13h-4.83c-.31,0-.57.27-.57.6v33.9c0,.33.25.59.57.59h4.83c.32,0,.57-.26.57-.59v-33.9c0-.33-.25-.6-.57-.6"/>
    <path class="cls-2" d="m167.26,78.93h-32.6c-.32,0-.57.27-.57.6v5.02c0,.33.25.6.57.6h32.6c.31,0,.57-.27.57-.6v-5.02c0-.33-.25-.6-.57-.6"/>
    <path class="cls-2" d="m167.26,89.57h-32.6c-.32,0-.57.27-.57.59v5.02c0,.34.25.6.57.6h32.6c.31,0,.57-.26.57-.6v-5.02c0-.33-.25-.59-.57-.59"/>
    <path class="cls-2" d="m167.26,100.21h-32.6c-.32,0-.57.27-.57.59v5.03c0,.33.25.59.57.59h32.6c.31,0,.57-.26.57-.59v-5.03c0-.33-.25-.59-.57-.59"/>
    <path class="cls-2" d="m58.21,0c-.32,0-.57.27-.57.6v33.9c0,.32.25.59.57.59h4.83c.31,0,.57-.27.57-.59V.6c0-.33-.25-.6-.57-.6,0,0-4.83,0-4.83,0Z"/>
    <path class="cls-2" d="m47.98,0c-.32,0-.57.27-.57.6v33.9c0,.32.25.59.57.59h4.83c.32,0,.57-.27.57-.59V.6c0-.33-.25-.6-.57-.6,0,0-4.83,0-4.83,0Z"/>
    <path class="cls-2" d="m37.75,0c-.32,0-.57.27-.57.6v33.9c0,.32.26.59.57.59h4.83c.32,0,.57-.27.57-.59V.6c0-.33-.25-.6-.57-.6,0,0-4.83,0-4.83,0Z"/>
    <path class="cls-2" d="m.57,10.01h32.61c.31,0,.56-.26.56-.59v-5.02c0-.32-.25-.59-.56-.59H.57c-.32,0-.57.27-.57.59v5.02c0,.33.25.59.57.59"/>
    <path class="cls-2" d="m.57,20.65h32.61c.31,0,.56-.26.56-.59v-5.03c0-.33-.25-.59-.56-.59H.57c-.32,0-.57.26-.57.59v5.03c0,.33.25.59.57.59"/>
    <path class="cls-2" d="m.57,31.3h32.61c.31,0,.56-.26.56-.59v-5.02c0-.33-.25-.59-.56-.59H.57c-.32,0-.57.26-.57.59v5.02c0,.33.25.59.57.59"/>
    <path class="cls-2" d="m130.08,35.1c.32,0,.57-.27.57-.59V.6C130.65.27,130.4,0,130.08,0h-4.83c-.31,0-.57.27-.57.6v33.91c0,.32.26.59.57.59h4.83Z"/>
    <path class="cls-2" d="m119.85,35.1c.31,0,.57-.27.57-.59V.6C120.42.27,120.16,0,119.85,0h-4.83c-.31,0-.57.27-.57.6v33.91c0,.32.26.59.57.59h4.83Z"/>
    <path class="cls-2" d="m109.62,35.1c.31,0,.57-.27.57-.59V.6C110.19.27,109.94,0,109.62,0h-4.83c-.31,0-.57.27-.57.6v33.91c0,.32.26.59.57.59h4.83Z"/>
    <path class="cls-2" d="m67.05,4.4v5.02c0,.33.25.59.57.59h32.6c.32,0,.57-.26.57-.59v-5.02c0-.32-.25-.59-.57-.59h-32.6c-.31,0-.57.27-.57.59"/>
    <path class="cls-2" d="m100.22,14.45h-32.6c-.31,0-.57.26-.57.59v5.03c0,.33.25.59.57.59h32.6c.32,0,.57-.26.57-.59v-5.03c0-.33-.25-.59-.57-.59"/>
    <path class="cls-2" d="m100.79,30.7v-5.02c0-.33-.25-.59-.57-.59h-32.6c-.31,0-.57.26-.57.59v5.02c0,.33.25.59.57.59h32.6c.32,0,.57-.26.57-.59"/>
    <path class="cls-2" d="m91.74,37.57c-.32,0-.57.27-.57.6v33.9c0,.32.26.59.57.59h4.83c.31,0,.57-.27.57-.59v-33.9c0-.33-.25-.6-.57-.6h-4.83Z"/>
    <path class="cls-2" d="m81.51,37.57c-.31,0-.57.27-.57.6v33.9c0,.32.26.59.57.59h4.83c.32,0,.57-.27.57-.59v-33.9c0-.33-.25-.6-.57-.6h-4.83Z"/>
    <path class="cls-2" d="m71.28,37.57c-.31,0-.57.27-.57.6v33.9c0,.32.26.59.57.59h4.83c.32,0,.57-.27.57-.59v-33.9c0-.33-.25-.6-.57-.6h-4.83Z"/>
    <path class="cls-2" d="m67.27,41.96c0-.32-.25-.59-.57-.59h-32.6c-.32,0-.57.27-.57.59v5.03c0,.33.25.59.57.59h32.6c.31,0,.57-.26.57-.59v-5.03Z"/>
    <path class="cls-2" d="m66.7,52.01h-32.6c-.32,0-.57.26-.57.59v5.03c0,.33.25.59.57.59h32.6c.31,0,.57-.26.57-.59v-5.03c0-.32-.25-.59-.57-.59"/>
    <path class="cls-2" d="m67.27,68.27v-5.03c0-.33-.25-.59-.57-.59h-32.6c-.32,0-.57.26-.57.59v5.03c0,.33.25.59.57.59h32.6c.31,0,.57-.27.57-.59"/>
    <path class="cls-2" d="m134.32,41.96c0-.32-.26-.59-.57-.59h-32.6c-.32,0-.57.27-.57.59v5.03c0,.33.26.59.57.59h32.6c.31,0,.57-.26.57-.59v-5.03Z"/>
    <path class="cls-2" d="m101.15,58.21h32.6c.31,0,.57-.26.57-.59v-5.03c0-.32-.26-.59-.57-.59h-32.6c-.31,0-.57.26-.57.59v5.03c0,.33.26.59.57.59"/>
    <path class="cls-2" d="m134.32,68.27v-5.03c0-.33-.26-.59-.57-.59h-32.6c-.32,0-.57.26-.57.59v5.03c0,.33.26.59.57.59h32.6c.31,0,.57-.27.57-.59"/>
    <path class="cls-2" d="m24.7,37.57c-.31,0-.57.27-.57.6v33.9c0,.32.26.59.57.59h4.83c.32,0,.57-.27.57-.59v-33.9c0-.33-.25-.6-.57-.6h-4.83Z"/>
    <path class="cls-2" d="m14.47,37.57c-.31,0-.57.27-.57.6v33.9c0,.32.26.59.57.59h4.83c.32,0,.57-.27.57-.59v-33.9c0-.33-.25-.6-.57-.6,0,0-4.83,0-4.83,0Z"/>
    <path class="cls-2" d="m4.24,37.57c-.32,0-.57.27-.57.6v33.9c0,.32.25.59.57.59h4.83c.31,0,.56-.27.56-.59v-33.9c0-.33-.26-.6-.56-.6h-4.83Z"/>
    <path class="cls-2" d="m63.04,75.13h-4.83c-.32,0-.57.27-.57.6v33.9c0,.33.25.59.57.59h4.83c.31,0,.57-.26.57-.59v-33.9c0-.33-.25-.6-.57-.6"/>
    <path class="cls-2" d="m52.81,75.13h-4.83c-.32,0-.57.27-.57.6v33.9c0,.33.25.59.57.59h4.83c.32,0,.57-.26.57-.59v-33.9c0-.33-.25-.6-.57-.6"/>
    <path class="cls-2" d="m42.58,75.13h-4.83c-.32,0-.57.27-.57.6v33.9c0,.33.26.59.57.59h4.83c.32,0,.57-.26.57-.59v-33.9c0-.33-.25-.6-.57-.6"/>
    <path class="cls-2" d="m33.18,78.93H.58c-.32,0-.57.27-.57.6v5.02c0,.33.25.6.57.6h32.61c.31,0,.56-.27.56-.6v-5.02c0-.33-.25-.6-.56-.6"/>
    <path class="cls-2" d="m33.18,89.57H.58c-.32,0-.57.27-.57.59v5.02c0,.34.25.6.57.6h32.61c.31,0,.56-.26.56-.6v-5.02c0-.33-.25-.59-.56-.59"/>
    <path class="cls-2" d="m33.18,100.21H.58c-.32,0-.57.27-.57.59v5.03c0,.33.25.59.57.59h32.61c.31,0,.56-.26.56-.59v-5.03c0-.33-.25-.59-.56-.59"/>
    <path class="cls-2" d="m130.08,75.13h-4.83c-.31,0-.57.27-.57.6v33.9c0,.33.26.59.57.59h4.83c.32,0,.57-.26.57-.59v-33.9c0-.33-.25-.6-.57-.6"/>
    <path class="cls-2" d="m119.85,75.13h-4.83c-.31,0-.57.27-.57.6v33.9c0,.33.26.59.57.59h4.83c.31,0,.57-.26.57-.59v-33.9c0-.33-.26-.6-.57-.6"/>
    <path class="cls-2" d="m109.62,75.13h-4.83c-.31,0-.57.27-.57.6v33.9c0,.33.26.59.57.59h4.83c.31,0,.57-.26.57-.59v-33.9c0-.33-.25-.6-.57-.6"/>
    <path class="cls-2" d="m100.22,78.93h-32.6c-.31,0-.57.27-.57.6v5.02c0,.33.25.6.57.6h32.6c.32,0,.57-.27.57-.6v-5.02c0-.33-.25-.6-.57-.6"/>
    <path class="cls-2" d="m100.22,89.57h-32.6c-.31,0-.57.27-.57.59v5.02c0,.34.25.6.57.6h32.6c.32,0,.57-.26.57-.6v-5.02c0-.33-.25-.59-.57-.59"/>
    <path class="cls-2" d="m100.22,100.21h-32.6c-.31,0-.57.27-.57.59v5.03c0,.33.25.59.57.59h32.6c.32,0,.57-.26.57-.59v-5.03c0-.33-.25-.59-.57-.59"/>
    <path class="cls-2" d="m167.61,117.09v5.02c0,.32.26.6.57.6h32.6c.32,0,.58-.27.58-.6v-5.02c0-.33-.26-.6-.58-.6h-32.6c-.31,0-.57.27-.57.6"/>
    <path class="cls-2" d="m200.78,127.14h-32.6c-.32,0-.57.27-.57.59v5.02c0,.32.26.59.57.59h32.6c.32,0,.57-.27.57-.59v-5.02c0-.33-.26-.59-.57-.59"/>
    <path class="cls-2" d="m167.61,143.39c0,.33.26.59.57.59h32.6c.32,0,.58-.26.58-.59v-5.02c0-.32-.26-.6-.58-.6h-32.6c-.31,0-.57.27-.57.6v5.02h0Z"/>
    <path class="cls-2" d="m158.78,112.7c-.32,0-.57.26-.57.59v33.9c0,.33.25.59.57.59h4.83c.32,0,.57-.26.57-.59v-33.9c0-.33-.25-.59-.57-.59h-4.83Z"/>
    <path class="cls-2" d="m148.55,112.7c-.31,0-.57.26-.57.59v33.9c0,.33.25.59.57.59h4.83c.32,0,.57-.26.57-.59v-33.9c0-.33-.25-.59-.57-.59h-4.83Z"/>
    <path class="cls-2" d="m138.32,112.7c-.32,0-.57.26-.57.59v33.9c0,.33.25.59.57.59h4.83c.32,0,.57-.26.57-.59v-33.9c0-.33-.25-.59-.57-.59h-4.83Z"/>
    <path class="cls-2" d="m192.29,150.26c-.31,0-.57.26-.57.59v33.91c0,.33.26.59.57.59h4.83c.31,0,.57-.26.57-.59v-33.91c0-.33-.25-.59-.57-.59h-4.83Z"/>
    <path class="cls-2" d="m182.06,150.26c-.31,0-.57.26-.57.59v33.91c0,.33.26.59.57.59h4.83c.32,0,.57-.26.57-.59v-33.91c0-.33-.25-.59-.57-.59h-4.83Z"/>
    <path class="cls-2" d="m171.83,150.26c-.31,0-.57.26-.57.59v33.91c0,.33.25.59.57.59h4.83c.32,0,.57-.26.57-.59v-33.91c0-.33-.25-.59-.57-.59h-4.83Z"/>
    <path class="cls-2" d="m134.66,160.27h32.6c.31,0,.57-.27.57-.59v-5.02c0-.33-.25-.59-.57-.59h-32.6c-.32,0-.57.26-.57.59v5.02c0,.32.25.59.57.59"/>
    <path class="cls-2" d="m134.66,170.91h32.6c.31,0,.57-.27.57-.6v-5.02c0-.33-.25-.59-.57-.59h-32.6c-.32,0-.57.27-.57.59v5.02c0,.33.25.6.57.6"/>
    <path class="cls-2" d="m134.66,181.55h32.6c.31,0,.57-.27.57-.59v-5.02c0-.32-.25-.59-.57-.59h-32.6c-.32,0-.57.27-.57.59v5.02c0,.33.25.59.57.59"/>
    <path class="cls-2" d="m201.36,192.22c0-.33-.26-.59-.57-.59h-32.6c-.32,0-.57.26-.57.59v5.03c0,.33.26.59.57.59h32.6c.32,0,.57-.26.57-.59v-5.03h0Z"/>
    <path class="cls-2" d="m200.78,202.26h-32.6c-.32,0-.57.27-.57.6v5.02c0,.32.26.59.57.59h32.6c.32,0,.57-.27.57-.59v-5.02c0-.33-.26-.6-.57-.6"/>
    <path class="cls-2" d="m201.36,218.52v-5.02c0-.33-.26-.6-.57-.6h-32.6c-.32,0-.57.27-.57.6v5.02c0,.33.26.6.57.6h32.6c.32,0,.57-.27.57-.6"/>
    <path class="cls-2" d="m158.78,187.83c-.32,0-.57.26-.57.59v33.91c0,.33.25.59.57.59h4.83c.32,0,.57-.27.57-.59v-33.91c0-.33-.25-.59-.57-.59h-4.83Z"/>
    <path class="cls-2" d="m148.55,187.83c-.31,0-.57.26-.57.59v33.91c0,.33.25.59.57.59h4.83c.32,0,.57-.27.57-.59v-33.91c0-.33-.25-.59-.57-.59h-4.83Z"/>
    <path class="cls-2" d="m138.32,187.83c-.32,0-.57.26-.57.59v33.91c0,.33.25.59.57.59h4.83c.32,0,.57-.27.57-.59v-33.91c0-.33-.25-.59-.57-.59h-4.83Z"/>
    <path class="cls-2" d="m96.57,147.78c.31,0,.57-.26.57-.59v-33.9c0-.33-.25-.59-.57-.59h-4.83c-.32,0-.57.26-.57.59v33.9c0,.33.26.59.57.59h4.83Z"/>
    <path class="cls-2" d="m86.34,147.78c.32,0,.57-.26.57-.59v-33.9c0-.33-.25-.59-.57-.59h-4.83c-.31,0-.57.26-.57.59v33.9c0,.33.26.59.57.59h4.83Z"/>
    <path class="cls-2" d="m76.11,147.78c.32,0,.57-.26.57-.59v-33.9c0-.33-.25-.59-.57-.59h-4.83c-.31,0-.57.26-.57.59v33.9c0,.33.26.59.57.59h4.83Z"/>
    <path class="cls-2" d="m33.53,117.09v5.02c0,.32.25.6.57.6h32.6c.32,0,.57-.27.57-.6v-5.02c0-.33-.25-.6-.57-.6h-32.6c-.32,0-.57.27-.57.6"/>
    <path class="cls-2" d="m66.7,127.14h-32.6c-.32,0-.57.27-.57.59v5.02c0,.32.25.59.57.59h32.6c.31,0,.57-.27.57-.59v-5.02c0-.33-.25-.59-.57-.59"/>
    <path class="cls-2" d="m33.53,143.39c0,.33.25.59.57.59h32.6c.32,0,.57-.26.57-.59v-5.02c0-.32-.25-.6-.57-.6h-32.6c-.32,0-.57.27-.57.6v5.02Z"/>
    <path class="cls-2" d="m100.58,117.09v5.02c0,.32.26.6.57.6h32.6c.31,0,.57-.27.57-.6v-5.02c0-.33-.26-.6-.57-.6h-32.6c-.31,0-.57.27-.57.6"/>
    <path class="cls-2" d="m134.32,127.73c0-.33-.26-.59-.57-.59h-32.6c-.32,0-.57.27-.57.59v5.02c0,.32.26.59.57.59h32.6c.31,0,.57-.27.57-.59v-5.02Z"/>
    <path class="cls-2" d="m134.32,143.39v-5.02c0-.32-.26-.6-.57-.6h-32.6c-.32,0-.57.27-.57.6v5.02c0,.33.26.59.57.59h32.6c.31,0,.57-.26.57-.59"/>
    <path class="cls-2" d="m24.7,112.7c-.31,0-.57.26-.57.59v33.9c0,.33.26.59.57.59h4.83c.32,0,.57-.26.57-.59v-33.9c0-.33-.25-.59-.57-.59h-4.83Z"/>
    <path class="cls-2" d="m14.47,112.7c-.31,0-.57.26-.57.59v33.9c0,.33.26.59.57.59h4.83c.32,0,.57-.26.57-.59v-33.9c0-.33-.25-.59-.57-.59h-4.83,0Z"/>
    <path class="cls-2" d="m4.24,112.7c-.32,0-.57.26-.57.59v33.9c0,.33.25.59.57.59h4.83c.31,0,.56-.26.56-.59v-33.9c0-.33-.26-.59-.56-.59h-4.83Z"/>
    <path class="cls-2" d="m58.21,150.26c-.32,0-.57.26-.57.59v33.91c0,.33.25.59.57.59h4.83c.31,0,.57-.26.57-.59v-33.91c0-.33-.25-.59-.57-.59h-4.83Z"/>
    <path class="cls-2" d="m47.98,150.26c-.32,0-.57.26-.57.59v33.91c0,.33.25.59.57.59h4.83c.32,0,.57-.26.57-.59v-33.91c0-.33-.25-.59-.57-.59,0,0-4.83,0-4.83,0Z"/>
    <path class="cls-2" d="m37.75,150.26c-.32,0-.57.26-.57.59v33.91c0,.33.26.59.57.59h4.83c.32,0,.57-.26.57-.59v-33.91c0-.33-.25-.59-.57-.59h-4.83Z"/>
    <path class="cls-2" d="m.57,160.27h32.61c.31,0,.56-.27.56-.59v-5.02c0-.33-.25-.59-.56-.59H.57c-.32,0-.57.26-.57.59v5.02c0,.32.25.59.57.59"/>
    <path class="cls-2" d="m.57,170.91h32.61c.31,0,.56-.27.56-.6v-5.02c0-.33-.25-.59-.56-.59H.57c-.32,0-.57.27-.57.59v5.02c0,.33.25.6.57.6"/>
    <path class="cls-2" d="m.57,181.55h32.61c.31,0,.56-.27.56-.59v-5.02c0-.32-.25-.59-.56-.59H.57c-.32,0-.57.27-.57.59v5.02c0,.33.25.59.57.59"/>
    <path class="cls-2" d="m130.08,185.35c.32,0,.57-.26.57-.59v-33.91c0-.33-.25-.59-.57-.59h-4.83c-.31,0-.57.26-.57.59v33.91c0,.33.26.59.57.59h4.83Z"/>
    <path class="cls-2" d="m119.85,185.35c.31,0,.57-.26.57-.59v-33.91c0-.33-.26-.59-.57-.59h-4.83c-.31,0-.57.26-.57.59v33.91c0,.33.26.59.57.59h4.83Z"/>
    <path class="cls-2" d="m109.62,185.35c.31,0,.57-.26.57-.59v-33.91c0-.33-.25-.59-.57-.59h-4.83c-.31,0-.57.26-.57.59v33.91c0,.33.26.59.57.59h4.83Z"/>
    <path class="cls-2" d="m67.05,154.66v5.02c0,.32.25.59.57.59h32.6c.32,0,.57-.27.57-.59v-5.02c0-.33-.25-.59-.57-.59h-32.6c-.31,0-.57.26-.57.59"/>
    <path class="cls-2" d="m100.22,164.7h-32.6c-.31,0-.57.27-.57.59v5.02c0,.33.25.6.57.6h32.6c.32,0,.57-.27.57-.6v-5.02c0-.33-.25-.59-.57-.59"/>
    <path class="cls-2" d="m100.79,180.96v-5.02c0-.32-.25-.59-.57-.59h-32.6c-.31,0-.57.27-.57.59v5.02c0,.33.25.59.57.59h32.6c.32,0,.57-.27.57-.59"/>
    <path class="cls-2" d="m91.74,187.83c-.32,0-.57.26-.57.59v33.91c0,.33.26.59.57.59h4.83c.31,0,.57-.27.57-.59v-33.91c0-.33-.25-.59-.57-.59h-4.83Z"/>
    <path class="cls-2" d="m81.51,187.83c-.31,0-.57.26-.57.59v33.91c0,.33.26.59.57.59h4.83c.32,0,.57-.27.57-.59v-33.91c0-.33-.25-.59-.57-.59h-4.83Z"/>
    <path class="cls-2" d="m71.28,187.83c-.31,0-.57.26-.57.59v33.91c0,.33.26.59.57.59h4.83c.32,0,.57-.27.57-.59v-33.91c0-.33-.25-.59-.57-.59h-4.83Z"/>
    <path class="cls-2" d="m67.27,192.22c0-.33-.25-.59-.57-.59h-32.6c-.32,0-.57.26-.57.59v5.03c0,.33.25.59.57.59h32.6c.31,0,.57-.26.57-.59v-5.03Z"/>
    <path class="cls-2" d="m66.7,202.26h-32.6c-.32,0-.57.27-.57.6v5.02c0,.32.25.59.57.59h32.6c.31,0,.57-.27.57-.59v-5.02c0-.33-.25-.6-.57-.6"/>
    <path class="cls-2" d="m67.27,218.52v-5.02c0-.33-.25-.6-.57-.6h-32.6c-.32,0-.57.27-.57.6v5.02c0,.33.25.6.57.6h32.6c.31,0,.57-.27.57-.6"/>
    <path class="cls-2" d="m134.32,192.22c0-.33-.26-.59-.57-.59h-32.6c-.32,0-.57.26-.57.59v5.03c0,.33.26.59.57.59h32.6c.31,0,.57-.26.57-.59v-5.03Z"/>
    <path class="cls-2" d="m101.15,208.48h32.6c.31,0,.57-.27.57-.59v-5.02c0-.33-.26-.6-.57-.6h-32.6c-.31,0-.57.27-.57.6v5.02c0,.32.26.59.57.59"/>
    <path class="cls-2" d="m134.32,218.52v-5.02c0-.33-.26-.6-.57-.6h-32.6c-.32,0-.57.27-.57.6v5.02c0,.33.26.6.57.6h32.6c.31,0,.57-.27.57-.6"/>
    <path class="cls-2" d="m24.7,187.83c-.31,0-.57.26-.57.59v33.91c0,.33.26.59.57.59h4.83c.32,0,.57-.27.57-.59v-33.91c0-.33-.25-.59-.57-.59h-4.83Z"/>
    <path class="cls-2" d="m14.47,187.83c-.31,0-.57.26-.57.59v33.91c0,.33.26.59.57.59h4.83c.32,0,.57-.27.57-.59v-33.91c0-.33-.25-.59-.57-.59h-4.83,0Z"/>
    <path class="cls-2" d="m4.24,187.83c-.32,0-.57.26-.57.59v33.91c0,.33.25.59.57.59h4.83c.31,0,.56-.27.56-.59v-33.91c0-.33-.26-.59-.56-.59h-4.83Z"/>
    <g id="_米模様" data-name=" 米模様">
      <path class="cls-1" d="m39.45,154.55c-8.81,6.19-13.52,2.77-13.52,25.6,0,24.62,11.31,36.17,23.82,36.17,14.8,0,23.79-14.51,24.98-37.03,1.2-22.76-10.19-41.19-24.98-41.2-5.29,0-3.87,11.93-10.3,16.45"/>
      <path class="cls-1" d="m141.84,22.64c-8.81,6.19-13.52,2.77-13.52,25.6,0,24.62,11.31,36.17,23.82,36.17,14.8,0,23.79-14.51,24.98-37.03,1.2-22.76-10.19-41.19-24.98-41.2-5.29,0-3.87,11.93-10.3,16.45"/>
    </g>
  </g>
</svg>